<?xml version="1.0" standalone="no"?>
<!DOCTYPE svg PUBLIC "-//W3C//DTD SVG 20010904//EN"
 "http://www.w3.org/TR/2001/REC-SVG-20010904/DTD/svg10.dtd">
<svg version="1.0" xmlns="http://www.w3.org/2000/svg"
 width="300.000000pt" height="398.000000pt" viewBox="0 0 300.000000 398.000000"
 preserveAspectRatio="xMidYMid meet">
<metadata>
Created by potrace 1.10, written by Peter Selinger 2001-2011
</metadata>
<g transform="translate(0.000000,398.000000) scale(0.100000,-0.100000)"
fill="#000000" stroke="none">
<path d="M161 3965 c-62 -19 -128 -87 -146 -149 -18 -60 -18 -63 -3 -48 7 7
17 12 22 12 8 0 10 -373 8 -1220 -1 -671 -6 -1220 -10 -1220 -4 0 -14 6 -21
12 -10 11 -11 7 -5 -17 19 -82 61 -137 138 -178 l41 -22 1265 -3 c696 -2 1288
0 1316 3 73 9 151 58 189 119 l30 49 0 1256 c0 1169 -1 1258 -17 1287 -36 66
-94 110 -171 128 -26 6 -27 5 -17 -14 l11 -20 -1296 0 c-712 0 -1295 4 -1295
8 0 4 5 13 12 20 15 15 5 14 -51 -3z m2670 -88 c18 -12 44 -38 56 -56 l23 -34
0 -1227 0 -1227 -23 -34 c-12 -18 -38 -44 -56 -56 l-34 -23 -1302 0 -1302 0
-34 23 c-18 12 -44 38 -56 56 l-23 34 0 1218 c0 838 3 1226 11 1246 14 37 47
73 84 89 24 11 268 13 1326 14 l1296 0 34 -23z"/>
<path d="M204 3808 c-12 -5 -27 -21 -33 -34 -8 -18 -11 -364 -11 -1225 l0
-1200 25 -24 24 -25 1286 0 1286 0 24 25 25 24 0 1211 0 1211 -26 24 -27 25
-1276 -1 c-857 0 -1283 -4 -1297 -11z m2573 -40 c20 -20 20 -2396 0 -2416 -12
-11 -219 -13 -1283 -13 l-1269 1 -17 21 c-17 20 -18 93 -18 1193 0 918 3 1176
13 1196 8 15 24 27 42 30 16 3 589 4 1274 3 1010 -2 1247 -5 1258 -15z"/>
<path d="M1472 3632 c-22 -22 -46 -88 -147 -407 -42 -132 -80 -249 -85 -260
-5 -11 -14 -37 -20 -58 -6 -20 -20 -42 -30 -47 -11 -6 -166 -10 -399 -10 -225
0 -390 -4 -406 -10 -42 -16 -42 -37 1 -81 21 -21 42 -39 46 -39 4 0 16 -7 25
-15 10 -8 126 -93 258 -189 132 -96 253 -184 268 -197 41 -32 48 -3 -113 -493
-64 -195 -98 -316 -94 -328 5 -17 8 -18 15 -7 5 8 68 193 140 413 110 334 129
400 118 411 -11 10 -570 417 -670 487 -23 17 -3 17 413 15 l436 -2 134 412
c83 258 136 406 140 395 3 -9 63 -195 133 -412 l127 -395 436 3 c240 2 434 1
432 -2 -3 -2 -156 -113 -340 -246 -184 -133 -341 -248 -348 -255 -11 -10 9
-81 118 -411 72 -220 134 -405 137 -413 4 -10 -5 -7 -23 7 -84 63 -669 487
-675 490 -5 2 -592 -421 -681 -491 -25 -20 -22 -28 8 -23 23 5 64 32 299 206
50 37 113 82 140 102 28 19 88 63 135 96 47 34 90 62 96 62 5 0 66 -41 135
-90 68 -50 135 -98 148 -108 14 -9 55 -39 92 -67 37 -27 100 -72 139 -100 39
-27 76 -55 83 -60 60 -52 102 -59 118 -19 8 23 -8 81 -101 368 -61 188 -115
351 -121 364 -5 13 -9 34 -9 47 0 25 15 37 303 246 87 63 197 142 245 176 47
34 93 74 101 88 14 23 14 26 -2 42 -16 17 -51 18 -419 21 -264 2 -406 6 -415
13 -7 6 -28 59 -47 117 -19 59 -73 227 -120 373 -77 238 -104 299 -129 299 -4
0 -15 -8 -25 -18z"/>
<path d="M1476 3314 c-10 -33 -56 -177 -103 -321 l-85 -263 -335 0 -335 0 123
-88 c362 -257 420 -303 413 -325 -4 -12 -51 -155 -104 -317 -53 -162 -97 -296
-96 -296 1 -1 123 87 271 195 l270 197 270 -197 c149 -108 270 -196 271 -195
1 0 -45 143 -102 316 -57 173 -104 316 -104 317 0 3 464 339 504 365 20 13 36
25 36 28 0 3 -150 4 -334 2 l-334 -3 -72 223 c-39 123 -86 267 -104 322 l-32
98 -18 -58z m54 -177 c0 -14 -4 -16 -18 -8 -11 6 -24 6 -36 -1 -17 -10 -18 -8
-13 18 3 16 11 43 18 59 l11 30 19 -40 c10 -22 19 -48 19 -58z m47 -267 l69
-215 242 0 c133 0 242 -3 242 -6 0 -4 -7 -10 -16 -13 -9 -3 -97 -65 -195 -137
-158 -115 -179 -134 -173 -152 4 -12 37 -114 74 -227 37 -113 66 -206 65 -208
-2 -2 -89 60 -194 137 -106 78 -194 141 -196 141 -2 0 -90 -63 -195 -140 -105
-77 -192 -140 -194 -140 -3 0 30 104 72 231 65 195 75 232 62 239 -8 5 -93 65
-189 134 -95 69 -177 126 -182 126 -5 0 -9 3 -9 8 0 4 109 6 243 4 l242 -4 75
236 c48 151 77 230 82 218 3 -9 37 -114 75 -232z m-730 -209 c-6 -14 -12 -28
-14 -30 -1 -2 -21 9 -44 25 l-42 29 29 5 c16 3 41 4 56 2 25 -4 26 -6 15 -31z
m1393 27 c0 -4 -19 -20 -43 -37 l-43 -29 -10 33 c-10 32 -9 34 15 37 44 5 81
3 81 -4z m-1131 -798 c21 0 11 -19 -22 -44 -49 -37 -59 -34 -42 15 21 59 26
65 40 46 7 -10 17 -17 24 -17z m833 -19 c9 -28 13 -52 11 -55 -3 -3 -23 8 -45
25 l-39 31 23 23 c13 13 26 23 29 24 3 1 12 -21 21 -48z"/>
<path d="M152 1045 c-55 -24 -91 -54 -116 -98 -27 -48 -45 -120 -24 -99 7 7
16 12 20 12 4 0 8 -148 8 -330 0 -181 -4 -330 -8 -330 -4 0 -14 6 -21 12 -10
11 -11 7 -5 -17 14 -59 33 -92 74 -129 43 -39 63 -49 119 -60 29 -5 32 -4 21
9 -7 9 -11 18 -8 20 10 11 2568 10 2568 0 0 -6 -6 -17 -12 -24 -14 -13 11 -10
79 10 44 14 119 97 133 148 7 28 10 154 8 384 l-3 342 -25 44 c-14 25 -47 61
-75 80 l-49 36 -1326 2 c-1138 2 -1330 0 -1358 -12z m2628 -66 c48 -11 92 -46
116 -91 11 -22 14 -92 14 -353 0 -364 -1 -372 -66 -421 l-37 -29 -1299 -3
c-1448 -3 -1340 -8 -1396 66 l-27 35 -3 342 -3 341 23 34 c29 42 67 70 109 80
53 12 2515 12 2569 -1z"/>
<path d="M185 875 l-25 -24 0 -316 0 -317 29 -29 29 -29 1275 0 1275 0 31 26
31 26 0 319 0 320 -25 24 -24 25 -1286 0 -1286 0 -24 -25z m2588 -24 c15 -12
17 -47 17 -317 0 -262 -2 -305 -16 -318 -14 -14 -143 -16 -1277 -16 -694 0
-1268 4 -1275 9 -25 15 -32 86 -32 341 0 280 4 300 55 311 17 4 588 6 1271 5
1036 -1 1244 -3 1257 -15z"/>
<path d="M326 799 l-26 -20 0 -215 0 -214 41 -45 c22 -24 57 -49 76 -56 49
-16 124 -7 162 20 l31 23 32 -27 c27 -23 39 -26 76 -22 26 3 53 14 68 28 21
19 28 21 42 11 68 -49 162 -54 221 -13 l32 23 25 -23 c26 -24 32 -25 149 -18
17 1 46 -2 65 -6 34 -6 67 2 102 27 14 10 21 9 38 -7 17 -15 34 -19 73 -18 29
1 68 2 87 2 48 -1 114 0 148 2 15 1 43 -2 64 -6 26 -5 46 -3 68 9 28 14 35 14
61 1 35 -19 66 -19 100 -1 16 8 32 10 40 5 19 -12 66 -11 74 1 3 5 19 3 39 -7
41 -19 95 -11 122 18 17 18 20 43 24 188 l5 166 24 -60 c18 -45 25 -88 30
-171 7 -123 14 -140 67 -150 43 -8 79 1 104 26 17 17 20 34 20 114 0 85 4 107
45 227 25 73 45 140 45 149 0 32 -43 60 -93 60 -25 0 -49 -4 -52 -10 -16 -26
-43 -30 -68 -10 -29 23 -96 27 -127 8 -16 -10 -24 -10 -40 0 -32 20 -123 15
-153 -8 -14 -11 -29 -20 -35 -20 -5 0 -17 9 -27 20 -14 15 -31 20 -74 20 -48
0 -59 -4 -87 -31 l-32 -31 -42 31 c-41 29 -48 31 -135 31 -85 0 -93 -2 -115
-25 -18 -19 -25 -41 -29 -92 l-6 -68 -13 72 c-18 97 -38 113 -136 113 -62 0
-75 -3 -99 -25 -15 -14 -27 -31 -27 -38 -1 -22 -48 -339 -52 -341 -2 -1 -30 0
-63 3 l-60 6 -7 43 c-4 24 -16 58 -27 76 -21 33 -21 33 -1 51 15 14 20 31 20
69 0 59 -14 85 -73 127 -34 25 -49 29 -103 29 -61 0 -64 -1 -116 -49 l-52 -48
-4 -77 c-4 -70 -2 -80 23 -117 l27 -41 -24 -26 c-34 -39 -39 -42 -85 -42 -32
0 -45 5 -53 19 -6 11 -10 88 -10 179 0 153 -1 159 -23 180 -28 26 -101 30
-134 7 -18 -13 -22 -13 -33 0 -19 23 -102 20 -134 -6z m124 -219 l0 -200 25 0
25 0 0 200 0 200 58 0 57 0 -3 -212 -2 -213 -34 -34 c-32 -32 -38 -34 -101
-33 -62 0 -70 3 -101 33 l-34 33 0 213 0 213 55 0 55 0 0 -200z m596 163 c39
-33 44 -42 44 -80 l0 -43 -60 0 -60 0 0 36 c0 31 -3 35 -22 32 -13 -2 -22 -6
-20 -10 1 -5 2 -28 2 -53 l0 -45 38 0 c30 0 48 -8 80 -36 l42 -36 0 -72 c0
-71 -1 -73 -39 -110 -37 -36 -43 -38 -100 -38 -56 0 -64 3 -101 36 -35 32 -40
41 -40 81 l0 45 61 0 61 0 -4 -35 c-4 -31 -1 -35 19 -35 21 0 23 5 23 49 l0
49 -42 6 c-29 5 -55 18 -80 42 -37 33 -38 36 -38 106 0 70 1 73 37 110 35 35
41 38 96 38 53 0 62 -4 103 -37z m474 32 c0 -3 16 -111 35 -241 19 -129 35
-238 35 -242 0 -4 -25 -7 -55 -7 l-55 0 -6 48 c-6 45 -8 47 -40 47 -32 0 -33
-1 -36 -47 l-3 -46 -58 -2 c-48 -1 -56 1 -53 14 3 9 19 121 37 249 l32 232 84
0 c45 0 83 -2 83 -5z m346 -31 c44 -35 44 -36 44 -99 0 -58 -2 -65 -31 -89
l-31 -26 32 -26 31 -26 -3 -96 -3 -96 -55 0 -55 0 0 97 c0 94 -1 97 -22 97
-22 0 -23 -3 -23 -98 l0 -98 -56 1 -55 2 -2 246 -2 247 94 0 c93 0 94 0 137
-36z m249 -84 c10 -66 21 -120 25 -120 4 0 12 39 19 88 6 48 14 102 17 120 l6
32 69 0 69 0 0 -248 0 -248 -56 0 -56 1 4 158 c2 86 0 157 -3 157 -3 0 -13
-62 -23 -137 -23 -181 -24 -185 -50 -181 -19 3 -22 16 -41 155 -11 83 -24 155
-28 160 -5 4 -6 -64 -2 -153 l8 -160 -57 0 -56 1 0 248 0 247 69 0 69 0 17
-120z m375 48 c22 -119 25 -120 45 -20 l17 92 60 0 c53 0 59 -2 53 -17 -3 -10
-26 -76 -51 -147 -41 -119 -44 -136 -44 -230 l0 -101 -56 1 -57 1 2 99 c1 95
0 105 -49 242 -27 79 -50 145 -50 148 0 2 26 4 58 4 l59 0 13 -72z m-1720
-376 l0 -48 -60 1 -60 0 0 48 0 47 60 0 60 0 0 -48z m470 1 l0 -48 -60 0 -60
-1 0 48 0 48 60 0 60 0 0 -47z"/>
<path d="M1426 613 c-4 -38 -8 -85 -10 -105 -4 -35 -2 -38 21 -38 24 0 25 1
19 58 -3 31 -7 76 -8 100 -3 68 -16 59 -22 -15z"/>
<path d="M1750 630 c0 -58 1 -61 23 -58 20 3 22 9 22 58 0 49 -2 55 -22 58
-22 3 -23 0 -23 -58z"/>
</g>
</svg>
