<?xml version="1.0" encoding="UTF-8"?>
<svg version="1.1" xmlns="http://www.w3.org/2000/svg" width="400" height="400">
<path d="M0 0 C0.81926971 0.00359528 1.63853943 0.00719055 2.4826355 0.01089478 C3.34109573 0.01074875 4.19955597 0.01060272 5.08403015 0.01045227 C7.93559249 0.0111517 10.78709036 0.01894547 13.63864136 0.02676392 C15.61019353 0.02862799 17.58174615 0.03005194 19.55329895 0.03105164 C24.75324778 0.03487765 29.95316886 0.04470865 35.15310669 0.05575562 C40.45492172 0.06596794 45.75674121 0.07054887 51.05856323 0.07559204 C61.46938274 0.08633084 71.88018162 0.10340826 82.29098511 0.12442017 C82.63015642 4.26979721 82.96125464 8.41578235 83.29098511 12.56192017 C83.38637573 13.72658813 83.48176636 14.8912561 83.58004761 16.09121704 C84.08236872 22.45993119 84.4003027 28.7361732 84.29098511 35.12442017 C83.30098511 35.12442017 82.31098511 35.12442017 81.29098511 35.12442017 C80.84368042 33.91785767 80.39637573 32.71129517 79.93551636 31.46817017 C79.3252897 29.85341654 78.71458707 28.23884274 78.10348511 26.62442017 C77.81151245 25.83293579 77.51953979 25.04145142 77.21871948 24.22598267 C74.82104087 17.93529898 72.21894627 11.33824446 66.72848511 7.18692017 C59.9038112 4.21206231 54.23700188 4.69199279 46.29098511 4.12442017 C46.29098511 38.11442017 46.29098511 72.10442017 46.29098511 107.12442017 C51.57098511 107.12442017 56.85098511 107.12442017 62.29098511 107.12442017 C62.29098511 108.44442017 62.29098511 109.76442017 62.29098511 111.12442017 C46.45098511 111.12442017 30.61098511 111.12442017 14.29098511 111.12442017 C14.29098511 109.80442017 14.29098511 108.48442017 14.29098511 107.12442017 C19.57098511 107.12442017 24.85098511 107.12442017 30.29098511 107.12442017 C30.29098511 73.13442017 30.29098511 39.14442017 30.29098511 4.12442017 C17.27972896 3.99962479 17.27972896 3.99962479 6.72457886 9.64395142 C1.92353827 15.35947593 -0.22630688 22.18692403 -2.70901489 29.12442017 C-3.6703372 31.47773719 -4.6815444 33.7990922 -5.70901489 36.12442017 C-6.36901489 35.79442017 -7.02901489 35.46442017 -7.70901489 35.12442017 C-7.85917669 27.21589888 -7.60767397 19.3376152 -7.27151489 11.43692017 C-7.23227905 10.44418091 -7.19304321 9.45144165 -7.15261841 8.42861938 C-7.11064331 7.49936646 -7.06866821 6.57011353 -7.02542114 5.61270142 C-6.98876343 4.7726355 -6.95210571 3.93256958 -6.91433716 3.06704712 C-6.47415361 -1.09768596 -3.53714478 0.00655467 0 0 Z " fill="#458DB8" transform="translate(254.70901489257813,113.87557983398438)"/>
<path d="M0 0 C2.24932343 1.47727076 2.24932343 1.47727076 5.20703125 2.33984375 C5.54476562 1.83453125 5.8825 1.32921875 6.23046875 0.80859375 C6.67648438 0.15890625 7.1225 -0.49078125 7.58203125 -1.16015625 C8.02289063 -1.80984375 8.46375 -2.45953125 8.91796875 -3.12890625 C9.34335938 -3.63421875 9.76875 -4.13953125 10.20703125 -4.66015625 C10.86703125 -4.66015625 11.52703125 -4.66015625 12.20703125 -4.66015625 C12.20703125 4.90984375 12.20703125 14.47984375 12.20703125 24.33984375 C11.21703125 24.33984375 10.22703125 24.33984375 9.20703125 24.33984375 C8.92730469 23.56640625 8.64757812 22.79296875 8.359375 21.99609375 C4.696554 12.47982568 0.62793993 5.35789392 -8.8984375 1.03125 C-16.84640942 -1.86935006 -26.32590135 -1.93092946 -34.29296875 0.90234375 C-40.65903743 3.89199177 -44.22888441 8.21344413 -46.60546875 14.77734375 C-49.04924367 22.58261273 -48.96290923 30.76111881 -48.99609375 38.85546875 C-49.00464386 40.49379669 -49.00464386 40.49379669 -49.0133667 42.16522217 C-49.02277605 44.46804854 -49.02933443 46.77088813 -49.03320312 49.07373047 C-49.04289981 52.56502182 -49.07395926 56.05572167 -49.10546875 59.546875 C-49.11200111 61.79556946 -49.11725066 64.04426809 -49.12109375 66.29296875 C-49.13344055 67.32149963 -49.14578735 68.35003052 -49.1585083 69.409729 C-49.12870515 79.2841739 -48.12752346 89.4315217 -40.859375 96.71484375 C-34.23751993 101.92220048 -27.18194457 103.02000308 -18.90234375 102.71875 C-14.24590171 102.15131925 -10.74567684 100.8339043 -6.79296875 98.33984375 C-6.12910156 97.93507813 -5.46523437 97.5303125 -4.78125 97.11328125 C2.73078913 91.59362971 6.23835295 82.50686923 10.20703125 74.33984375 C10.86703125 74.33984375 11.52703125 74.33984375 12.20703125 74.33984375 C12.20703125 84.89984375 12.20703125 95.45984375 12.20703125 106.33984375 C8.02903482 104.25084553 7.28311224 103.28439763 5.20703125 99.33984375 C0.63122246 101.128569 -3.81025343 103.16015188 -8.26953125 105.21875 C-16.55776214 108.90098261 -28.05764279 108.6725162 -36.66796875 105.83984375 C-50.40619427 99.87757896 -59.65322768 89.49017942 -65.5390625 75.90625 C-71.8867761 57.85184963 -71.14390698 38.48765039 -63.23828125 21.01953125 C-60.90054963 16.68525046 -58.07206505 12.99973833 -54.79296875 9.33984375 C-53.94025391 8.38271484 -53.94025391 8.38271484 -53.0703125 7.40625 C-45.59148083 -0.51551931 -36.1231786 -5.64633224 -25.14453125 -6.65234375 C-15.75631163 -6.68353385 -8.00911721 -4.91113784 0 0 Z " fill="#418AB7" transform="translate(170.79296875,118.66015625)"/>
<path d="M0 0 C15.18 0 30.36 0 46 0 C46 1.32 46 2.64 46 4 C40.72 4 35.44 4 30 4 C30 37.99 30 71.98 30 107 C35.28 107 40.56 107 46 107 C45.505 108.98 45.505 108.98 45 111 C30.48 111 15.96 111 1 111 C0.67 109.68 0.34 108.36 0 107 C4.62 107 9.24 107 14 107 C14 73.01 14 39.02 14 4 C9.38 4 4.76 4 0 4 C0 2.68 0 1.36 0 0 Z " fill="#448DB8" transform="translate(346,114)"/>
<path d="M0 0 C14.52 0 29.04 0 44 0 C44 1.32 44 2.64 44 4 C39.38 4 34.76 4 30 4 C30 37.99 30 71.98 30 107 C34.62 107 39.24 107 44 107 C44 108.32 44 109.64 44 111 C29.48 111 14.96 111 0 111 C0 109.68 0 108.36 0 107 C4.62 107 9.24 107 14 107 C14 73.01 14 39.02 14 4 C9.38 4 4.76 4 0 4 C0 2.68 0 1.36 0 0 Z " fill="#438CB8" transform="translate(196,114)"/>
<path d="M0 0 C1.34888732 0.00015905 2.69778075 0.00584927 4.04663086 0.01586914 C5.10991859 0.01799156 5.10991859 0.01799156 6.19468689 0.02015686 C8.46699173 0.02577096 10.73919936 0.03832576 13.01147461 0.05102539 C14.54858257 0.05603858 16.08569206 0.0606018 17.62280273 0.06469727 C21.39823103 0.07574497 25.17358632 0.09301898 28.94897461 0.11352539 C30.51198773 3.23955162 29.01322463 6.07334392 28.13647461 9.30102539 C25.97376833 17.71082879 25.14923505 26.06000718 24.54541016 34.70800781 C24.44546753 36.13077026 24.44546753 36.13077026 24.34350586 37.58227539 C24.26386597 38.85748047 24.26386597 38.85748047 24.18261719 40.15844727 C23.94897461 42.11352539 23.94897461 42.11352539 22.94897461 43.11352539 C19.9919214 43.20220838 17.05832405 43.22872835 14.10131836 43.21118164 C12.77167809 43.20905922 12.77167809 43.20905922 11.41517639 43.20689392 C8.57224207 43.20127755 5.7293853 43.1887223 2.88647461 43.17602539 C0.9639497 43.1710125 -0.95857644 43.16644923 -2.88110352 43.16235352 C-7.60444088 43.1513028 -12.32771997 43.13402722 -17.05102539 43.11352539 C-17.13141299 37.19266941 -16.67065861 32.30554119 -15.05102539 26.61352539 C-14.83607422 25.84468018 -14.62112305 25.07583496 -14.3996582 24.28369141 C-7.27118018 0.27055284 -7.27118018 0.27055284 0 0 Z " fill="#3D88B6" transform="translate(23.051025390625,151.886474609375)"/>
<path d="M0 0 C13.2 0 26.4 0 40 0 C40.62610045 3.13050223 41.14134416 5.88702886 41.39453125 9.01171875 C42.22554844 18.36292305 43.51786485 27.35147384 45.7668457 36.4753418 C46.21387966 38.3084922 46.61225666 40.15339911 47 42 C44.23170026 44.76829974 36.53771984 43.53926293 32.58227539 43.62475586 C31.07736087 43.6663567 29.57285363 43.72767454 28.06958008 43.80932617 C15.6905891 44.47075733 15.6905891 44.47075733 11.75634766 41.0480957 C10.11171186 38.41621889 9.01976849 35.92807108 8 33 C7.68264893 32.20891846 7.36529785 31.41783691 7.03833008 30.6027832 C6.1823054 28.35936659 5.45098588 26.10862705 4.75 23.8125 C4.38648438 22.68038086 4.38648438 22.68038086 4.015625 21.52539062 C3.54376352 20.04441233 3.08182921 18.56022699 2.63085938 17.07275391 C2.05769773 15.18957189 1.44505592 13.31851942 0.828125 11.44921875 C0 8 0 8 0 0 Z " fill="#3B87B5" transform="translate(6,203)"/>
<path d="M0 0 C11.88 0 23.76 0 36 0 C36.02290595 5.9631823 36.04283396 11.92621311 36.05493164 17.8894043 C36.05997278 19.91968298 36.06680557 21.94995802 36.07543945 23.98022461 C36.08751467 26.89177347 36.09323034 29.8032745 36.09765625 32.71484375 C36.10281754 33.6283812 36.10797882 34.54191864 36.11329651 35.48313904 C36.11349168 37.65575427 36.06211805 39.82827296 36 42 C35 43 35 43 32.22436523 43.11352539 C31.01466064 43.10828857 29.80495605 43.10305176 28.55859375 43.09765625 C27.25341797 43.09443359 25.94824219 43.09121094 24.60351562 43.08789062 C23.2148431 43.07953401 21.82617123 43.07106905 20.4375 43.0625 C19.04492344 43.05748666 17.65234519 43.05292347 16.25976562 43.04882812 C12.8398013 43.03699434 9.41992156 43.0205088 6 43 C2.21797988 28.82660421 0 14.69753417 0 0 Z " fill="#3C87B5" transform="translate(54,203)"/>
<path d="M0 0 C4.1117256 -0.02465746 8.22342278 -0.04283959 12.33520508 -0.05493164 C13.73495228 -0.0599708 15.1346942 -0.06680216 16.53442383 -0.07543945 C18.54245777 -0.0875232 20.55052957 -0.09269807 22.55859375 -0.09765625 C24.37315063 -0.10551147 24.37315063 -0.10551147 26.22436523 -0.11352539 C29 0 29 0 30 1 C30.101137 4.01808063 30.13968909 7.01280513 30.1328125 10.03125 C30.13376923 10.93750122 30.13472595 11.84375244 30.13571167 12.77746582 C30.13639353 14.69751047 30.13453882 16.61755741 30.13037109 18.53759766 C30.12502292 21.48735704 30.13031588 24.43696414 30.13671875 27.38671875 C30.13605797 29.24739617 30.13477681 31.1080735 30.1328125 32.96875 C30.13483673 33.85727661 30.13686096 34.74580322 30.13894653 35.66125488 C30.11494988 41.88505012 30.11494988 41.88505012 29 43 C26.40640678 43.08851529 23.83960309 43.11525945 21.24609375 43.09765625 C20.47064713 43.0962413 19.6952005 43.09482635 18.89625549 43.09336853 C16.40996506 43.08775345 13.9237634 43.07519846 11.4375 43.0625 C9.75586067 43.05748694 8.07421994 43.0529237 6.39257812 43.04882812 C2.26168434 43.03777913 -1.86914276 43.02050445 -6 43 C-5.47394078 28.28787712 -4.23912995 14.16713558 0 0 Z " fill="#3E88B6" transform="translate(60,152)"/>
<path d="M0 0 C4.29 0 8.58 0 13 0 C14.12688693 3.35354319 15.25156566 6.70780024 16.375 10.0625 C16.69210937 11.00544922 17.00921875 11.94839844 17.3359375 12.91992188 C19.00831533 17.91963476 20.60383909 22.91599992 22 28 C23.66766273 24.87232126 24.83589061 21.72342849 25.9453125 18.359375 C26.29980469 17.28945313 26.65429688 16.21953125 27.01953125 15.1171875 C27.38433594 14.00601563 27.74914062 12.89484375 28.125 11.75 C28.49753906 10.62335938 28.87007813 9.49671875 29.25390625 8.3359375 C30.17197711 5.55818465 31.08634577 2.77920869 32 0 C36.29 0 40.58 0 45 0 C45 0.66 45 1.32 45 2 C43.02 2 41.04 2 39 2 C39 14.87 39 27.74 39 41 C40.98 41 42.96 41 45 41 C45 41.66 45 42.32 45 43 C39.39 43 33.78 43 28 43 C28 42.34 28 41.68 28 41 C29.65 41 31.3 41 33 41 C32.67 30.11 32.34 19.22 32 8 C31.28972656 10.35898438 30.57945312 12.71796875 29.84765625 15.1484375 C29.15969534 17.42884234 28.47111348 19.70905881 27.7824707 21.98925781 C27.30363003 23.57597569 26.82543674 25.16288909 26.34790039 26.75 C25.66201523 29.0291615 24.97381699 31.30761335 24.28515625 33.5859375 C24.07157974 34.29744965 23.85800323 35.00896179 23.63795471 35.74203491 C22.11387171 40.77225659 22.11387171 40.77225659 21 43 C20.34 43 19.68 43 19 43 C17.72658976 39.20919398 16.45675324 35.41719971 15.1875 31.625 C14.65286133 30.03365234 14.65286133 30.03365234 14.10742188 28.41015625 C13.75615234 27.35957031 13.40488281 26.30898438 13.04296875 25.2265625 C12.56380005 23.79691162 12.56380005 23.79691162 12.07495117 22.33837891 C10.65003548 17.91314675 9.3358761 13.45292032 8 9 C7.67 19.56 7.34 30.12 7 41 C8.65 41 10.3 41 12 41 C12 41.66 12 42.32 12 43 C8.04 43 4.08 43 0 43 C0 42.34 0 41.68 0 41 C1.65 41 3.3 41 5 41 C5 28.13 5 15.26 5 2 C3.35 2 1.7 2 0 2 C0 1.34 0 0.68 0 0 Z " fill="#616161" transform="translate(344,241)"/>
<path d="M0 0 C3.87485635 -0.08751413 7.74945643 -0.14056435 11.625 -0.1875 C13.26662109 -0.22520508 13.26662109 -0.22520508 14.94140625 -0.26367188 C25.1623257 -0.35658932 25.1623257 -0.35658932 30 3 C32.58428621 6.00110657 32.99143971 7.52062386 33.0625 11.5 C31.64999663 16.15295228 29.94713123 17.26117425 26 20 C25.34 20.33 24.68 20.66 24 21 C24.969375 21.78375 25.93875 22.5675 26.9375 23.375 C28.83962346 24.91288705 29.89629957 25.79259913 31 28 C31.22950319 30.204364 31.41075933 32.41392173 31.5625 34.625 C31.68818359 36.40777344 31.68818359 36.40777344 31.81640625 38.2265625 C31.87699219 39.14179688 31.93757813 40.05703125 32 41 C33.65 41 35.3 41 37 41 C37 41.66 37 42.32 37 43 C29.63803681 43.49079755 29.63803681 43.49079755 26.5625 41.125 C23.5701527 37.05540768 23.68820001 33.57102575 23.37890625 28.62890625 C23.15982797 25.77355181 23.15982797 25.77355181 21 23 C18.03 22.34 15.06 21.68 12 21 C12 27.6 12 34.2 12 41 C13.98 41 15.96 41 18 41 C18 41.66 18 42.32 18 43 C12.06 43 6.12 43 0 43 C0 42.34 0 41.68 0 41 C1.65 41 3.3 41 5 41 C5 28.13 5 15.26 5 2 C3.35 2 1.7 2 0 2 C0 1.34 0 0.68 0 0 Z M12 2 C12 7.61 12 13.22 12 19 C18.04730716 19.50781474 18.04730716 19.50781474 23.5625 17.5625 C25.66155794 13.82070106 25.66568876 10.20312789 25 6 C23.27773504 2.75150023 23.27773504 2.75150023 20 2 C17.36 2 14.72 2 12 2 Z " fill="#747474" transform="translate(145,241)"/>
<path d="M0 0 C-0.61746094 0.74121094 -1.23492187 1.48242188 -1.87109375 2.24609375 C-8.93496021 10.95314409 -13.94953158 19.98052233 -19 30 C-28.57 30 -38.14 30 -48 30 C-40.35581508 14.71163017 -22.35479354 5.6719554 -7 0 C-3.84833413 -1.02456982 -3.28612669 -1.09537556 0 0 Z " fill="#3D88B5" transform="translate(74,115)"/>
<path d="M0 0 C3.87485635 -0.08751413 7.74945643 -0.14056435 11.625 -0.1875 C13.26662109 -0.22520508 13.26662109 -0.22520508 14.94140625 -0.26367188 C21.72592806 -0.32534935 26.7587177 -0.13323955 31.875 4.8125 C33.44116749 7.85782568 33.54236086 9.61024461 33 13 C30.57184111 16.41254763 28.48478855 18.67680763 25 21 C25.78375 21.721875 26.5675 22.44375 27.375 23.1875 C32.11680899 28.26800963 32.44717409 33.3224449 33 40 C34.65 40.33 36.3 40.66 38 41 C37.505 41.99 37.505 41.99 37 43 C29.65822785 43.48945148 29.65822785 43.48945148 26.5625 41.1875 C23.5171353 36.92398942 23.77123738 32.64829698 23.57421875 27.59375 C23.21004034 24.93866693 23.21004034 24.93866693 21.39453125 23.21875 C18.39301049 21.5287579 18.39301049 21.5287579 12 21 C12 27.6 12 34.2 12 41 C13.98 41 15.96 41 18 41 C18 41.66 18 42.32 18 43 C12.06 43 6.12 43 0 43 C0 42.34 0 41.68 0 41 C1.98 41 3.96 41 6 41 C6 28.13 6 15.26 6 2 C4.02 2 2.04 2 0 2 C0 1.34 0 0.68 0 0 Z M12 2 C12 7.61 12 13.22 12 19 C17.88935908 19.3660215 17.88935908 19.3660215 23.5 18 C25.79718667 14.93708443 26.20360533 11.73034057 26 8 C24.66048669 5.00204165 23.9444025 3.47220125 21 2 C17.99525503 1.86440682 15.00931153 1.95700984 12 2 Z " fill="#6B6B6B" transform="translate(265,241)"/>
<path d="M0 0 C9.9 0 19.8 0 30 0 C31.485 2.949375 32.97 5.89875 34.5 8.9375 C37.91432661 15.57803295 41.24888677 21.24643621 46.6015625 26.50390625 C48 28 48 28 48 30 C28.28711744 26.38597153 12.67437601 15.20925121 0 0 Z " fill="#408AB7" transform="translate(26,254)"/>
<path d="M0 0 C0.02465288 4.68139254 0.04283739 9.36274759 0.05493164 14.04418945 C0.05997157 15.63794614 0.0668035 17.23169819 0.07543945 18.82543945 C0.08751999 21.11150253 0.09323155 23.39750467 0.09765625 25.68359375 C0.10281754 26.40026718 0.10797882 27.11694061 0.11329651 27.85533142 C0.11349263 29.57063672 0.06192007 31.28581266 0 33 C-1 34 -1 34 -3.40844727 34.11352539 C-4.45057373 34.10828857 -5.4927002 34.10305176 -6.56640625 34.09765625 C-7.69111328 34.09443359 -8.81582031 34.09121094 -9.97460938 34.08789062 C-11.15861328 34.07951172 -12.34261719 34.07113281 -13.5625 34.0625 C-14.75037109 34.05798828 -15.93824219 34.05347656 -17.16210938 34.04882812 C-20.10812226 34.03699675 -23.05403681 34.02051287 -26 34 C-26.33 33.34 -26.66 32.68 -27 32 C-25.958963 29.73528794 -24.87243227 27.64855992 -23.625 25.5 C-23.26140381 24.8714209 -22.89780762 24.2428418 -22.52319336 23.59521484 C-18.98326087 17.66939655 -7.52065014 0 0 0 Z " fill="#3885B4" transform="translate(90,111)"/>
<path d="M0 0 C4.97178392 3.99424501 7.63600343 8.4849368 8.97265625 14.734375 C9.60841935 21.12868461 8.81523479 26.93641719 5.97265625 32.734375 C3.53515625 35.609375 3.53515625 35.609375 0.97265625 37.734375 C0.39515625 38.311875 -0.18234375 38.889375 -0.77734375 39.484375 C-4.40005784 41.49699394 -7.90785083 41.95119042 -12.02734375 41.734375 C-17.62510669 40.13501416 -22.12739249 36.83391193 -25.02734375 31.734375 C-28.34099676 24.28187912 -28.90447109 17.25932197 -26.26953125 9.50390625 C-23.61880866 3.56762414 -20.02612306 0.26708443 -14.21484375 -2.703125 C-9.01277988 -3.62113627 -4.5113856 -2.81635633 0 0 Z M-19.02734375 4.734375 C-20.54435493 9.38158269 -20.25071061 14.20963147 -20.27734375 19.046875 C-20.29796875 19.97177734 -20.31859375 20.89667969 -20.33984375 21.84960938 C-20.37252545 27.59750287 -19.85438948 31.68703155 -17.02734375 36.734375 C-13.5747424 39.2453578 -11.6735436 39.74551638 -7.40234375 39.671875 C-3.72139717 38.64938984 -2.32328828 37.736764 -0.02734375 34.734375 C1.63400622 29.75032508 1.19914976 24.57781565 1.22265625 19.359375 C1.24328125 18.22242188 1.26390625 17.08546875 1.28515625 15.9140625 C1.2903125 14.81578125 1.29546875 13.7175 1.30078125 12.5859375 C1.31012695 11.58385254 1.31947266 10.58176758 1.32910156 9.54931641 C0.90980738 6.23804112 -0.05498499 4.40751617 -2.02734375 1.734375 C-8.30466987 -2.45050908 -14.56374528 -1.40307289 -19.02734375 4.734375 Z " fill="#656565" transform="translate(212.02734375,243.265625)"/>
<path d="M0 0 C8.91 0 17.82 0 27 0 C27 10.89 27 21.78 27 33 C14.55327882 23.66495911 5.82071854 14.55179635 0 0 Z " fill="#438CB8" transform="translate(63,254)"/>
<path d="M0 0 C3.70818297 -0.08756305 7.41609763 -0.14058015 11.125 -0.1875 C12.17171875 -0.21263672 13.2184375 -0.23777344 14.296875 -0.26367188 C21.37180561 -0.33083894 26.04911231 0.20442219 31.375 5.25 C33.51284404 8.86788991 33.6543438 10.85582258 33 15 C30.61941402 18.82336536 28.90815288 20.61578148 24.75 22.375 C21 23 21 23 12 23 C12 28.94 12 34.88 12 41 C13.98 41 15.96 41 18 41 C18 41.66 18 42.32 18 43 C12.06 43 6.12 43 0 43 C0 42.34 0 41.68 0 41 C1.65 41 3.3 41 5 41 C5 28.13 5 15.26 5 2 C3.35 2 1.7 2 0 2 C0 1.34 0 0.68 0 0 Z M12 2 C12 8.27 12 14.54 12 21 C19.5195806 21.4869201 19.5195806 21.4869201 25 18 C25.71882843 14.91582016 25.71882843 14.91582016 25.5 11.5 C25.4896875 10.3553125 25.479375 9.210625 25.46875 8.03125 C25.21747187 5.06114742 25.21747187 5.06114742 23.79296875 3.10546875 C21.36034758 1.60561736 19.64760668 1.7020413 16.8125 1.8125 C15.224375 1.874375 13.63625 1.93625 12 2 Z " fill="#6A6A6A" transform="translate(109,241)"/>
<path d="M0 0 C2.74328919 0.67929066 4.49692561 0.78474032 7.05078125 -0.4921875 C7.38078125 3.4678125 7.71078125 7.4278125 8.05078125 11.5078125 C7.06078125 11.5078125 6.07078125 11.5078125 5.05078125 11.5078125 C2.05078125 5.7578125 2.05078125 5.7578125 2.05078125 3.5078125 C-0.8546378 2.53933948 -2.91559329 2.31198438 -5.94921875 2.2578125 C-6.81546875 2.23203125 -7.68171875 2.20625 -8.57421875 2.1796875 C-10.97055318 2.32987179 -10.97055318 2.32987179 -12.69921875 3.7109375 C-16.2027467 8.74725893 -15.13306281 16.15099064 -15.13671875 22.0078125 C-15.14896484 23.04035156 -15.16121094 24.07289063 -15.17382812 25.13671875 C-15.17576172 26.13574219 -15.17769531 27.13476562 -15.1796875 28.1640625 C-15.18585083 29.52241211 -15.18585083 29.52241211 -15.19213867 30.90820312 C-14.91943792 33.82651224 -14.31927493 35.91634493 -12.94921875 38.5078125 C-9.42650726 40.03653636 -6.95865386 40.61997196 -3.13671875 40.1953125 C0.36160782 37.49660343 0.46935923 33.72529162 1.05078125 29.5078125 C-0.92921875 29.5078125 -2.90921875 29.5078125 -4.94921875 29.5078125 C-4.94921875 28.8478125 -4.94921875 28.1878125 -4.94921875 27.5078125 C0.99078125 27.5078125 6.93078125 27.5078125 13.05078125 27.5078125 C13.05078125 28.1678125 13.05078125 28.8278125 13.05078125 29.5078125 C11.73078125 29.5078125 10.41078125 29.5078125 9.05078125 29.5078125 C8.82390625 30.5596875 8.59703125 31.6115625 8.36328125 32.6953125 C6.96376123 37.56406524 4.08732492 40.26325803 -0.19921875 42.8828125 C-5.57692792 44.10501913 -10.26103574 43.31943895 -15.19921875 40.9453125 C-20.32413473 36.40277333 -23.45598466 31.11672119 -24.1875 24.28125 C-24.4134713 16.97880898 -23.19935478 10.31668863 -18.3359375 4.6171875 C-12.4444671 -0.76482094 -7.67646311 -2.09478613 0 0 Z " fill="#606060" transform="translate(249.94921875,241.4921875)"/>
<path d="M0 0 C0.99 0.33 1.98 0.66 3 1 C4.19495102 3.87735381 5.19763226 6.66743437 6.13671875 9.62890625 C6.42102249 10.49313705 6.70532623 11.35736786 6.99824524 12.24778748 C7.90596396 15.01581479 8.79686182 17.78893524 9.6875 20.5625 C10.29903214 22.4372075 10.9116486 24.31156168 11.52539062 26.18554688 C13.02955149 30.78635518 14.51864637 35.3918002 16 40 C17.65 40.33 19.3 40.66 21 41 C21 41.66 21 42.32 21 43 C15.06 43 9.12 43 3 43 C3 42.34 3 41.68 3 41 C5.475 40.505 5.475 40.505 8 40 C6.515 35.545 6.515 35.545 5 31 C1.04 30.67 -2.92 30.34 -7 30 C-8.98 34.95 -8.98 34.95 -11 40 C-9.68 40.33 -8.36 40.66 -7 41 C-7 41.66 -7 42.32 -7 43 C-10.63 43 -14.26 43 -18 43 C-18 42.34 -18 41.68 -18 41 C-16.68 41 -15.36 41 -14 41 C-13.84289551 40.38141113 -13.68579102 39.76282227 -13.52392578 39.12548828 C-11.54181472 31.5753095 -9.11958007 24.20411957 -6.55615234 16.83496094 C-5.86449748 14.84477985 -5.17998517 12.85223557 -4.49609375 10.859375 C-4.05770637 9.59100242 -3.61891974 8.32276775 -3.1796875 7.0546875 C-2.78507324 5.91499512 -2.39045898 4.77530273 -1.98388672 3.60107422 C-1 1 -1 1 0 0 Z M-2 11 C-2.83919398 13.26882087 -3.67151724 15.53977027 -4.5 17.8125 C-4.73847656 18.45509766 -4.97695313 19.09769531 -5.22265625 19.75976562 C-6.27068746 22.64933739 -7 24.90076061 -7 28 C-3.37 28 0.26 28 4 28 C3.20514017 24.02570087 2.23700354 20.50217167 0.9375 16.6875 C0.57527344 15.61886719 0.21304687 14.55023438 -0.16015625 13.44921875 C-0.43730469 12.64097656 -0.71445312 11.83273438 -1 11 C-1.33 11 -1.66 11 -2 11 Z " fill="#666666" transform="translate(322,241)"/>
<path d="M0 0 C0.66 0 1.32 0 2 0 C2 10.56 2 21.12 2 32 C-2.17799643 29.91100178 -2.92391901 28.94455388 -5 25 C-9.57580879 26.78872525 -14.01728468 28.82030813 -18.4765625 30.87890625 C-21.80451015 32.35742169 -24.39834706 33.12482446 -28.01171875 33.09765625 C-29.14770508 33.09282227 -29.14770508 33.09282227 -30.30664062 33.08789062 C-31.48516602 33.07532227 -31.48516602 33.07532227 -32.6875 33.0625 C-33.48478516 33.05798828 -34.28207031 33.05347656 -35.10351562 33.04882812 C-37.06904257 33.0370585 -39.03453085 33.01912348 -41 33 C-41 32.67 -41 32.34 -41 32 C-37.04 31.505 -37.04 31.505 -33 31 C-34.98 30.67 -36.96 30.34 -39 30 C-39 29.67 -39 29.34 -39 29 C-38.16597656 28.97421875 -37.33195313 28.9484375 -36.47265625 28.921875 C-29.19037909 28.55484156 -23.2672271 27.84661549 -17 24 C-16.33613281 23.59652344 -15.67226562 23.19304687 -14.98828125 22.77734375 C-7.47982692 17.24557484 -3.97126617 8.17235098 0 0 Z " fill="#4990BA" transform="translate(181,193)"/>
<path d="M0 0 C2.24932343 1.47727076 2.24932343 1.47727076 5.20703125 2.33984375 C5.54476562 1.83453125 5.8825 1.32921875 6.23046875 0.80859375 C6.67648438 0.15890625 7.1225 -0.49078125 7.58203125 -1.16015625 C8.02289063 -1.80984375 8.46375 -2.45953125 8.91796875 -3.12890625 C9.34335938 -3.63421875 9.76875 -4.13953125 10.20703125 -4.66015625 C10.86703125 -4.66015625 11.52703125 -4.66015625 12.20703125 -4.66015625 C12.20703125 4.90984375 12.20703125 14.47984375 12.20703125 24.33984375 C11.21703125 24.33984375 10.22703125 24.33984375 9.20703125 24.33984375 C8.92730469 23.56640625 8.64757812 22.79296875 8.359375 21.99609375 C4.696554 12.47982568 0.62793993 5.35789392 -8.8984375 1.03125 C-12.27842398 -0.20227084 -15.30167979 -0.78509026 -18.90234375 -0.7578125 C-20.03349609 -0.75297852 -20.03349609 -0.75297852 -21.1875 -0.74804688 C-21.96480469 -0.73966797 -22.74210938 -0.73128906 -23.54296875 -0.72265625 C-24.33574219 -0.71814453 -25.12851563 -0.71363281 -25.9453125 -0.70898438 C-27.89456383 -0.6972419 -29.84377613 -0.67930771 -31.79296875 -0.66015625 C-31.13296875 -0.99015625 -30.47296875 -1.32015625 -29.79296875 -1.66015625 C-30.12296875 -2.98015625 -30.45296875 -4.30015625 -30.79296875 -5.66015625 C-19.77550142 -7.86364972 -9.5331869 -5.84568732 0 0 Z " fill="#4C92BB" transform="translate(170.79296875,118.66015625)"/>
<path d="M0 0 C3.63 0 7.26 0 11 0 C11 6.27 11 12.54 11 19 C13.97 19 16.94 19 20 19 C20 19.33 20 19.66 20 20 C17.03 20 14.06 20 11 20 C11 26.6 11 33.2 11 40 C12.98 40 14.96 40 17 40 C17 40.66 17 41.32 17 42 C11.06 42 5.12 42 -1 42 C-1 41.34 -1 40.68 -1 40 C0.98 40 2.96 40 5 40 C5 27.13 5 14.26 5 1 C3.35 1 1.7 1 0 1 C0 0.67 0 0.34 0 0 Z " fill="#5E5E5E" transform="translate(266,242)"/>
<path d="M0 0 C2.31 0 4.62 0 7 0 C6.67 13.2 6.34 26.4 6 40 C8.31 40 10.62 40 13 40 C13 40.66 13 41.32 13 42 C7.06 42 1.12 42 -5 42 C-5 41.34 -5 40.68 -5 40 C-3.35 40 -1.7 40 0 40 C0 26.8 0 13.6 0 0 Z " fill="#636363" transform="translate(150,242)"/>
<path d="M0 0 C4.29 0 8.58 0 13 0 C13 0.66 13 1.32 13 2 C11.02 2 9.04 2 7 2 C7 14.87 7 27.74 7 41 C8.98 41 10.96 41 13 41 C13 41.66 13 42.32 13 43 C7.39 43 1.78 43 -4 43 C-4 42.34 -4 41.68 -4 41 C-2.02 41 -0.04 41 2 41 C1.88162595 35.80372161 1.75736882 30.60762956 1.62768555 25.41162109 C1.58440486 23.64440728 1.54272495 21.8771535 1.50268555 20.10986328 C1.44481649 17.5679114 1.38117019 15.02615941 1.31640625 12.484375 C1.29969376 11.69569031 1.28298126 10.90700562 1.26576233 10.09442139 C1.16959706 6.52428882 0.87151485 3.48605939 0 0 Z " fill="#5C5D5C" transform="translate(376,241)"/>
<path d="M0 0 C-0.32355469 1.10214844 -0.64710938 2.20429688 -0.98046875 3.33984375 C-2.24625039 8.42423456 -2.33112123 13.34483113 -2.3125 18.5625 C-2.32861328 19.46935547 -2.34472656 20.37621094 -2.36132812 21.31054688 C-2.36542825 26.96461371 -1.78499519 31.03716497 1 36 C3.54368999 37.50452457 3.54368999 37.50452457 6 38 C4.68 38.66 3.36 39.32 2 40 C-5.02923051 35.68660855 -8.38294922 31.598696 -10.5234375 23.68359375 C-11.85705734 16.17378366 -10.22873429 9.31393775 -6 3 C-3.4829932 0 -3.4829932 0 0 0 Z " fill="#616161" transform="translate(195,244)"/>
<path d="M0 0 C5.94 0 11.88 0 18 0 C18 0.66 18 1.32 18 2 C16.68 2 15.36 2 14 2 C13.773125 3.051875 13.54625 4.10375 13.3125 5.1875 C11.91297998 10.05625274 9.03654367 12.75544553 4.75 15.375 C-0.48527702 16.56483569 -5.30266785 15.86598579 -10.0625 13.4375 C-10.701875 12.963125 -11.34125 12.48875 -12 12 C-11.34 11.67 -10.68 11.34 -10 11 C-9.67 10.34 -9.34 9.68 -9 9 C-8.608125 9.474375 -8.21625 9.94875 -7.8125 10.4375 C-5.49920247 12.43172201 -4.03639703 12.7831145 -1 13 C1.78400707 12.81992412 1.78400707 12.81992412 4 11 C5.04422377 8.05033698 5.57344207 5.09413666 6 2 C4.02 2 2.04 2 0 2 C0 1.34 0 0.68 0 0 Z " fill="#6B6B6B" transform="translate(245,269)"/>
<path d="M0 0 C1.875 0 1.875 0 4 1 C6.9177305 6.18707644 7.6130276 11.11535081 8 17 C9.65 17.33 11.3 17.66 13 18 C12.67 18.66 12.34 19.32 12 20 C4.65822785 20.48945148 4.65822785 20.48945148 1.5625 18.1875 C-1.1110965 14.44446491 -1.13578596 11.35117462 -1.125 6.875 C-1.12757813 5.79992187 -1.13015625 4.72484375 -1.1328125 3.6171875 C-1 1 -1 1 0 0 Z " fill="#5B5C5C" transform="translate(290,264)"/>
<path d="M0 0 C3.3404486 0.27837072 4.72025133 0.72025133 7.125 3.125 C9.36037863 6.55258056 9.5860123 8.7538045 9.75 12.8125 C9.80671875 13.97394531 9.8634375 15.13539063 9.921875 16.33203125 C9.96054688 17.65267578 9.96054688 17.65267578 10 19 C11.65 19 13.3 19 15 19 C15 19.66 15 20.32 15 21 C7.63803681 21.49079755 7.63803681 21.49079755 4.5625 19.125 C2.13890816 15.82891509 1.80384337 13.67262772 1.5 9.625 C1.24915301 6.30127744 0.91275806 3.20986584 0 0 Z " fill="#606060" transform="translate(167,263)"/>
<path d="M0 0 C0.99 0.33 1.98 0.66 3 1 C3 13.54 3 26.08 3 39 C2.67 39 2.34 39 2 39 C1.67 28.11 1.34 17.22 1 6 C-1.64 14.58 -4.28 23.16 -7 32 C-9 28 -9 28 -8.40087891 24.97558594 C-8.01335449 23.82348633 -7.62583008 22.67138672 -7.2265625 21.484375 C-6.8140625 20.23398437 -6.4015625 18.98359375 -5.9765625 17.6953125 C-5.52636221 16.38009857 -5.0758372 15.06499574 -4.625 13.75 C-4.18092778 12.41972535 -3.73820327 11.08899999 -3.296875 9.7578125 C-2.21111249 6.50052496 -1.11172804 3.24849843 0 0 Z " fill="#7C7C7C" transform="translate(375,243)"/>
<path d="M0 0 C0.99 0.33 1.98 0.66 3 1 C2.67 12.88 2.34 24.76 2 37 C3.65 37 5.3 37 7 37 C7 37.66 7 38.32 7 39 C3.04 39 -0.92 39 -5 39 C-5 38.34 -5 37.68 -5 37 C-3.35 37 -1.7 37 0 37 C0 24.79 0 12.58 0 0 Z " fill="#727272" transform="translate(349,245)"/>
<path d="M0 0 C0.66 0.33 1.32 0.66 2 1 C0.6393319 7.75523606 -1.28709973 14.08575595 -3.625 20.5625 C-3.94984375 21.47580078 -4.2746875 22.38910156 -4.609375 23.33007812 C-5.40153629 25.55511941 -6.1984659 27.77832175 -7 30 C-5.68 30.33 -4.36 30.66 -3 31 C-3 31.66 -3 32.32 -3 33 C-6.63 33 -10.26 33 -14 33 C-14 32.34 -14 31.68 -14 31 C-12.68 31 -11.36 31 -10 31 C-9.79697266 30.15695312 -9.79697266 30.15695312 -9.58984375 29.296875 C-7.03498776 19.32222765 -3.46830754 9.68478984 0 0 Z " fill="#777777" transform="translate(318,251)"/>
<path d="M0 0 C2.71527989 0.74442585 4.44235169 0.81202728 6.98046875 -0.45703125 C7.31046875 3.50296875 7.64046875 7.46296875 7.98046875 11.54296875 C6.99046875 11.54296875 6.00046875 11.54296875 4.98046875 11.54296875 C1.98046875 5.79296875 1.98046875 5.79296875 1.98046875 3.54296875 C-0.90873819 2.57989977 -2.94201006 2.34737515 -5.95703125 2.29296875 C-6.81167969 2.2671875 -7.66632813 2.24140625 -8.546875 2.21484375 C-11.51475386 2.60868549 -12.7559235 3.64153824 -15.01953125 5.54296875 C-16.66750361 6.25459318 -18.33118533 6.93328828 -20.01953125 7.54296875 C-16.91620213 3.17891218 -14.35496689 0.55583472 -9.2109375 -1.1328125 C-5.91427801 -1.62055357 -3.16727734 -0.9249571 0 0 Z " fill="#848484" transform="translate(250.01953125,241.45703125)"/>
<path d="M0 0 C0.33 0 0.66 0 1 0 C1.02465288 4.68139254 1.04283739 9.36274759 1.05493164 14.04418945 C1.05997157 15.63794614 1.0668035 17.23169819 1.07543945 18.82543945 C1.08751999 21.11150253 1.09323155 23.39750467 1.09765625 25.68359375 C1.10281754 26.40026718 1.10797882 27.11694061 1.11329651 27.85533142 C1.11349263 29.57063672 1.06192007 31.28581266 1 33 C0 34 0 34 -2.40844727 34.11352539 C-3.45057373 34.10828857 -4.4927002 34.10305176 -5.56640625 34.09765625 C-6.69111328 34.09443359 -7.81582031 34.09121094 -8.97460938 34.08789062 C-10.15861328 34.07951172 -11.34261719 34.07113281 -12.5625 34.0625 C-13.75037109 34.05798828 -14.93824219 34.05347656 -16.16210938 34.04882812 C-19.10812226 34.03699675 -22.05403681 34.02051287 -25 34 C-25.33 33.34 -25.66 32.68 -26 32 C-25.34 31.34 -24.68 30.68 -24 30 C-24 30.66 -24 31.32 -24 32 C-16.08 32 -8.16 32 0 32 C-0.08378906 29.77378906 -0.16757813 27.54757813 -0.25390625 25.25390625 C-0.33123312 23.10607984 -0.40679226 20.95819806 -0.48217773 18.81030273 C-0.53566434 17.31349062 -0.5909987 15.81674337 -0.64819336 14.32006836 C-0.72991956 12.17315668 -0.8050746 10.02610207 -0.87890625 7.87890625 C-0.9260376 6.5854126 -0.97316895 5.29191895 -1.02172852 3.95922852 C-1 1 -1 1 0 0 Z " fill="#97BED7" transform="translate(89,111)"/>
<path d="M0 0 C0.66 0.33 1.32 0.66 2 1 C-1.63 4.63 -5.26 8.26 -9 12 C3.87 12.495 3.87 12.495 17 13 C16.67 13.66 16.34 14.32 16 15 C6.43 15 -3.14 15 -13 15 C-10.96986589 10.93973179 -8.57604446 8.34542624 -5.375 5.25 C-4.859375 4.74339844 -4.34375 4.23679688 -3.8125 3.71484375 C-2.54616661 2.47196098 -1.2736856 1.23534724 0 0 Z " fill="#77ACCC" transform="translate(39,130)"/>
<path d="M0 0 C0.66 0.33 1.32 0.66 2 1 C0.63125844 7.95776959 -1.4533129 14.38603107 -4 21 C-6.09439066 17.58741458 -6.09439066 17.58741458 -5.67626953 14.98535156 C-5.41442871 14.2940918 -5.15258789 13.60283203 -4.8828125 12.890625 C-4.60566406 12.13652344 -4.32851563 11.38242187 -4.04296875 10.60546875 C-3.74003906 9.82816406 -3.43710937 9.05085938 -3.125 8.25 C-2.82980469 7.45722656 -2.53460938 6.66445313 -2.23046875 5.84765625 C-1.50053607 3.89332036 -0.75203302 1.94593855 0 0 Z " fill="#838383" transform="translate(318,251)"/>
<path d="M0 0 C0.33 0 0.66 0 1 0 C1.33 3.96 1.66 7.92 2 12 C1.01 12 0.02 12 -1 12 C-4 6.25 -4 6.25 -4 4 C-4.66 4 -5.32 4 -6 4 C-6 3.34 -6 2.68 -6 2 C-4.7934375 1.7834375 -4.7934375 1.7834375 -3.5625 1.5625 C-1.07896294 1.25864751 -1.07896294 1.25864751 0 0 Z " fill="#666666" transform="translate(256,241)"/>
<path d="M0 0 C0.7425 0.680625 0.7425 0.680625 1.5 1.375 C4.89475949 3.58159367 8.04883498 4.14391425 12 5 C12 5.66 12 6.32 12 7 C6.62007164 6.66009167 2.46726453 6.31442207 -2 3 C-1.34 2.67 -0.68 2.34 0 2 C0 1.34 0 0.68 0 0 Z " fill="#7F7F7F" transform="translate(235,278)"/>
<path d="M0 0 C-0.33 0.66 -0.66 1.32 -1 2 C-2.9609375 2.37890625 -2.9609375 2.37890625 -5.375 2.5625 C-8.19477465 2.78753088 -10.28663703 3.09554568 -13 4 C-13.66 3.34 -14.32 2.68 -15 2 C-9.32010626 -0.49118146 -6.05525768 -1.38766322 0 0 Z " fill="#848484" transform="translate(208,241)"/>
<path d="M0 0 C0.33 0 0.66 0 1 0 C1.33 2.97 1.66 5.94 2 9 C3.65 9.33 5.3 9.66 7 10 C6.67 10.66 6.34 11.32 6 12 C3.36 12 0.72 12 -2 12 C-1.34 11.67 -0.68 11.34 0 11 C0 7.37 0 3.74 0 0 Z " fill="#8C8C8C" transform="translate(296,272)"/>
<path d="M0 0 C0.66 0 1.32 0 2 0 C2 4.62 2 9.24 2 14 C1.67 14 1.34 14 1 14 C0.67 10.7 0.34 7.4 0 4 C-0.99 4.495 -0.99 4.495 -2 5 C-1.34 3.35 -0.68 1.7 0 0 Z " fill="#67A2C4" transform="translate(181,193)"/>
<path d="M0 0 C0.66 0.33 1.32 0.66 2 1 C1.34 3.97 0.68 6.94 0 10 C-0.66 10 -1.32 10 -2 10 C-1.54177532 6.53058454 -1.10868317 3.32604951 0 0 Z " fill="#777777" transform="translate(318,251)"/>
<path d="M0 0 C4.62 0 9.24 0 14 0 C13.34 1.32 12.68 2.64 12 4 C11.34 3.34 10.68 2.68 10 2 C7.56747339 1.53837573 7.56747339 1.53837573 4.875 1.375 C3.96492188 1.30023438 3.05484375 1.22546875 2.1171875 1.1484375 C1.41851562 1.09945312 0.71984375 1.05046875 0 1 C0 0.67 0 0.34 0 0 Z " fill="#717171" transform="translate(121,242)"/>
<path d="M0 0 C-0.625 1.875 -0.625 1.875 -2 4 C-5.125 5.25 -5.125 5.25 -8 6 C-3.375 0 -3.375 0 0 0 Z " fill="#707070" transform="translate(238,243)"/>
<path d="M0 0 C1.125 1.625 1.125 1.625 2 4 C1.125 7.25 1.125 7.25 0 10 C-1.125 8.375 -1.125 8.375 -2 6 C-1.125 2.75 -1.125 2.75 0 0 Z " fill="#828282" transform="translate(368,265)"/>
<path d="M0 0 C0.94875 0.350625 1.8975 0.70125 2.875 1.0625 C1.555 2.0525 0.235 3.0425 -1.125 4.0625 C-2.445 2.7425 -3.765 1.4225 -5.125 0.0625 C-3.125 -0.9375 -3.125 -0.9375 0 0 Z " fill="#878787" transform="translate(289.125,261.9375)"/>
</svg>
