<?xml version="1.0" standalone="no"?>
<!DOCTYPE svg PUBLIC "-//W3C//DTD SVG 20010904//EN"
 "http://www.w3.org/TR/2001/REC-SVG-20010904/DTD/svg10.dtd">
<svg version="1.0" xmlns="http://www.w3.org/2000/svg"
 width="254.000000pt" height="255.000000pt" viewBox="0 0 254.000000 255.000000"
 preserveAspectRatio="xMidYMid meet">
<metadata>
Created by potrace 1.10, written by Peter Selinger 2001-2011
</metadata>
<g transform="translate(0.000000,255.000000) scale(0.100000,-0.100000)"
fill="#000000" stroke="none">
<path d="M1087 2544 c-3 -3 -47 -16 -98 -28 -145 -36 -306 -106 -417 -180
-157 -106 -320 -279 -414 -441 -191 -332 -212 -790 -52 -1150 65 -148 248
-375 384 -479 78 -59 223 -146 274 -163 22 -8 55 -21 71 -29 17 -7 82 -27 145
-44 107 -28 127 -30 292 -30 99 0 199 5 225 11 93 23 288 92 351 126 174 92
341 236 452 389 172 237 240 450 240 755 0 144 -3 173 -30 287 -40 165 -128
353 -220 466 -217 268 -436 408 -775 494 -58 15 -416 28 -428 16z m363 -38
c430 -65 811 -366 981 -774 63 -152 99 -416 79 -577 -40 -325 -133 -523 -350
-749 -142 -148 -309 -252 -511 -319 -142 -47 -230 -61 -389 -60 -436 2 -833
234 -1069 623 -203 333 -219 816 -39 1174 128 255 370 481 630 590 234 98 439
126 668 92z"/>
<path d="M1210 2473 c-306 -18 -587 -147 -810 -372 -143 -145 -250 -340 -306
-561 -16 -62 -19 -110 -18 -280 0 -194 2 -210 28 -295 95 -313 254 -530 515
-702 193 -127 414 -193 651 -193 531 0 985 336 1155 855 38 117 48 217 42 405
-4 139 -9 179 -32 254 -104 350 -320 609 -640 769 -164 82 -401 130 -585 120z
m237 -42 c29 -4 55 -10 58 -13 4 -3 -5 -18 -19 -33 -15 -16 -26 -32 -26 -36 0
-5 -7 -9 -15 -9 -20 0 -41 -37 -48 -84 -5 -34 -2 -42 21 -64 20 -19 39 -26 71
-26 35 -1 45 -5 52 -22 l8 -22 -57 16 c-43 13 -101 17 -233 17 l-176 0 14 22
c13 19 13 31 2 75 -7 29 -21 62 -31 74 -10 11 -18 28 -18 38 0 9 -5 26 -10 36
-9 17 -6 20 27 25 21 4 43 8 48 10 19 7 281 3 332 -4z m-422 -51 c3 -5 -5 -15
-19 -21 -16 -8 -23 -17 -19 -28 5 -13 3 -14 -7 -4 -39 36 -69 -75 -34 -125 8
-12 14 -28 11 -35 -9 -28 -42 49 -42 100 0 29 -4 53 -9 53 -18 0 21 34 59 51
48 21 52 22 60 9z m-130 -17 c-37 -87 6 -223 71 -223 15 0 24 -6 24 -15 0 -8
-9 -15 -19 -15 -28 0 -164 -73 -233 -126 -39 -29 -58 -39 -53 -28 30 72 30 74
13 90 -14 15 -21 15 -47 4 -26 -10 -35 -10 -56 4 -14 9 -25 21 -25 26 0 15
-52 36 -78 32 -16 -2 -28 -15 -38 -40 -8 -20 -20 -47 -26 -59 -9 -17 -7 -28 6
-48 22 -34 96 -110 120 -122 18 -10 17 -13 -11 -54 -189 -277 -218 -606 -78
-897 92 -192 234 -331 439 -428 142 -67 197 -79 366 -78 128 0 156 4 233 27
259 79 454 241 570 472 90 181 114 376 71 583 l-7 34 39 -20 c55 -28 155 -25
204 6 19 12 38 22 42 22 26 0 20 -424 -7 -525 -52 -189 -171 -399 -300 -529
-174 -176 -408 -299 -649 -342 -103 -18 -288 -18 -391 1 -270 48 -505 180
-692 388 -118 131 -207 302 -261 502 -23 88 -24 433 0 530 34 140 86 256 174
392 69 107 118 160 229 247 104 82 126 97 215 144 116 60 168 75 155 45z m655
3 c0 -8 -14 -15 -36 -18 l-37 -4 23 18 c26 21 50 23 50 4z m79 -66 c-9 -43 -9
-54 2 -62 11 -7 9 -12 -8 -25 -13 -8 -23 -21 -23 -27 0 -6 -10 -22 -21 -36
-15 -18 -19 -20 -15 -7 21 65 20 70 -8 63 -38 -9 -71 1 -56 19 8 10 6 13 -13
11 -18 -1 -22 -6 -19 -23 2 -13 -1 -23 -7 -23 -6 0 -11 9 -11 19 0 15 -5 18
-22 14 -22 -6 -22 -6 2 15 21 18 22 21 8 22 -22 0 -22 19 -1 45 13 16 15 17
10 3 -8 -23 25 -25 43 -3 17 21 30 19 30 -5 0 -10 -10 -25 -22 -31 -22 -12
-22 -12 -3 -19 27 -9 55 -1 49 15 -8 19 12 27 25 11 9 -11 7 -17 -10 -30 -12
-8 -27 -12 -33 -9 -8 4 -8 2 -1 -5 7 -7 21 -9 40 -4 28 8 31 13 41 73 7 35 12
66 13 69 1 2 6 -1 11 -6 7 -7 7 -27 -1 -64z m145 29 c87 -43 203 -119 273
-177 l43 -36 -32 -18 c-18 -9 -47 -17 -65 -18 -21 0 -38 -8 -51 -25 -12 -15
-30 -25 -45 -25 -14 0 -34 -8 -46 -17 -20 -16 -20 -20 -8 -38 10 -13 26 -19
51 -18 35 1 38 -1 61 -52 26 -59 56 -78 83 -51 15 14 14 19 -1 51 -23 47 -21
56 6 50 26 -7 45 9 50 42 1 11 11 32 21 47 17 27 18 27 37 10 54 -49 174 -243
205 -332 23 -65 11 -79 -48 -55 -35 14 -40 14 -63 -1 -14 -9 -25 -21 -25 -27
0 -11 -80 -89 -91 -89 -3 0 -29 46 -56 103 -57 116 -144 231 -227 297 -63 51
-224 150 -243 150 -21 0 -15 19 23 68 25 34 34 55 32 77 -4 44 12 125 24 125
6 0 47 -18 92 -41z m-737 -21 c-4 -15 -1 -18 14 -13 25 8 24 -11 -2 -25 -11
-6 -29 -26 -39 -43 -14 -22 -20 -26 -20 -14 0 9 -7 17 -15 17 -8 0 -15 4 -15
8 0 12 47 51 54 45 3 -4 6 -1 6 5 0 6 -9 10 -19 9 -11 0 -17 -5 -15 -9 3 -4
-2 -8 -10 -8 -11 0 -16 9 -16 26 0 20 3 24 13 16 8 -7 18 -6 31 4 23 17 39 8
33 -18z m33 -61 c0 -7 -9 -18 -21 -25 -12 -7 -19 -16 -16 -18 3 -3 14 0 26 7
24 15 39 6 23 -14 -15 -17 -90 -43 -99 -33 -4 4 7 18 25 32 18 14 32 34 32 45
0 10 7 19 15 19 8 0 15 -6 15 -13z m457 -154 c230 -76 407 -227 513 -438 70
-140 92 -229 92 -385 0 -144 -20 -238 -77 -359 -108 -228 -301 -392 -552 -467
-76 -24 -107 -27 -228 -28 -161 -1 -230 13 -362 74 -102 48 -161 87 -242 164
-192 184 -287 438 -260 702 32 318 240 593 539 715 118 48 189 59 345 55 123
-3 151 -7 232 -33z m-1007 -15 c0 -5 7 -8 15 -4 10 3 15 -1 15 -13 0 -22 35
-55 49 -46 17 10 13 -41 -3 -54 -16 -13 -32 2 -21 19 3 6 -1 10 -9 10 -9 0
-16 5 -16 11 0 5 -4 7 -10 4 -5 -3 -10 -2 -10 4 0 6 -7 8 -16 4 -13 -5 -15 -2
-9 15 7 23 -10 32 -18 10 -2 -7 -8 -10 -12 -5 -5 4 -4 12 2 18 6 6 9 17 7 23
-2 6 5 12 16 13 11 1 20 -3 20 -9z m1580 -5 c0 -4 -12 -18 -27 -31 -19 -15
-24 -25 -15 -28 6 -3 12 -14 12 -25 0 -18 -2 -19 -29 -5 -20 11 -37 13 -59 7
-28 -9 -119 -7 -128 2 -3 2 23 7 57 10 69 6 77 10 59 32 -18 22 -5 30 27 16
23 -11 29 -9 47 8 20 20 56 29 56 14z m-1410 -38 c0 -28 -94 -135 -119 -135
-5 0 -7 -10 -4 -22 6 -22 4 -21 -20 5 -14 15 -31 27 -37 27 -6 0 -8 5 -5 11 4
6 -10 26 -30 45 -21 19 -35 37 -31 41 3 3 14 -1 24 -9 9 -9 32 -30 50 -47 33
-30 35 -31 60 -15 15 9 43 36 62 60 31 40 50 54 50 39z m1325 -149 c11 -16 13
-26 6 -26 -18 0 -51 62 -50 95 l0 30 14 -37 c7 -20 21 -48 30 -62z m285 -246
c8 -5 11 -12 8 -16 -4 -3 4 -28 17 -55 26 -50 31 -74 17 -83 -4 -2 -14 0 -22
5 -11 7 -12 11 -3 17 18 11 -30 108 -58 115 -12 3 -18 10 -14 16 8 13 35 14
55 1z m73 -17 c2 -5 1 -19 -3 -33 l-6 -25 -16 33 c-16 30 -16 32 2 32 10 0 21
-3 23 -7z m-79 -79 c8 -31 -2 -50 -17 -35 -17 17 -30 13 -24 -9 3 -11 2 -20
-2 -20 -14 0 -90 40 -96 51 -14 21 6 22 21 1 24 -34 35 -26 28 21 -5 39 -4 41
10 23 9 -11 16 -24 16 -29 0 -5 6 -7 14 -4 8 3 17 1 19 -6 2 -7 8 -9 11 -5 4
3 -2 16 -14 28 -25 25 -16 49 10 25 10 -9 21 -28 24 -41z"/>
<path d="M208 1693 c-9 -10 -18 -35 -22 -55 -4 -21 -14 -44 -22 -53 -17 -17
-11 -50 11 -59 10 -3 15 -19 15 -44 0 -50 20 -77 51 -69 17 5 31 -1 51 -20 23
-22 30 -24 43 -13 12 10 15 23 10 47 -3 18 -1 42 5 53 8 15 8 25 1 34 -8 9 -4
18 14 34 19 16 25 32 25 59 -1 42 -13 63 -48 82 -19 10 -28 10 -47 -3 -21 -14
-24 -13 -40 4 -22 24 -28 25 -47 3z m36 -45 c5 -20 10 -25 26 -21 11 3 20 0
20 -6 0 -6 -5 -11 -11 -11 -5 0 -7 -5 -3 -12 6 -9 9 -9 12 0 2 7 8 10 13 6 5
-3 5 5 0 20 -7 18 -6 28 4 36 36 30 85 -54 51 -88 -14 -14 -19 -14 -56 3 -23
10 -48 28 -56 39 -14 20 -14 20 -14 -2 0 -13 -4 -20 -10 -17 -10 6 -4 68 8 90
6 10 6 9 16 -37z m-4 -104 c0 -14 3 -14 15 -4 15 12 16 11 19 -12 0 -7 19 -18
41 -24 36 -11 37 -13 12 -13 -16 -1 -37 4 -47 9 -14 7 -10 -4 16 -42 35 -53
47 -92 16 -50 -9 12 -29 39 -44 59 l-28 36 0 -37 c0 -20 -4 -36 -10 -36 -5 0
-9 28 -8 65 1 36 6 65 10 65 4 0 8 -7 8 -16z"/>
<path d="M275 1010 c-27 -10 -55 -26 -61 -37 -16 -25 -1 -61 31 -73 21 -8 23
-13 16 -32 -11 -31 -6 -56 17 -87 11 -15 22 -36 26 -48 4 -13 18 -31 32 -42
13 -10 24 -26 24 -36 0 -47 178 -235 223 -235 7 0 26 15 42 33 61 66 62 58
-14 136 -38 39 -74 71 -79 71 -5 0 -12 13 -15 29 -4 16 -19 45 -36 63 -32 37
-69 112 -96 198 -28 88 -30 89 -110 60z m105 -139 c0 -4 -18 -14 -40 -23 -38
-16 -52 -40 -31 -53 15 -9 81 27 81 44 0 14 1 14 10 1 12 -19 13 -43 1 -35 -5
3 -26 -2 -45 -12 -34 -16 -37 -16 -56 2 -33 30 -26 59 20 80 43 20 54 36 18
28 -19 -5 -21 -3 -10 8 18 19 16 50 -3 43 -12 -5 -13 -10 -4 -20 7 -9 8 -14 1
-14 -6 0 -18 -3 -27 -7 -14 -5 -16 -2 -10 17 8 24 7 24 -18 7 -22 -14 -26 -15
-31 -1 -10 27 -7 32 27 38 19 3 42 13 53 20 18 14 20 11 42 -52 12 -36 22 -68
22 -71z m84 -141 c25 -34 31 -50 21 -50 -8 0 -29 -13 -48 -30 -26 -22 -37 -26
-45 -18 -17 17 -15 26 6 33 27 9 64 44 58 54 -4 6 -23 4 -50 -6 -38 -14 -47
-15 -61 -3 -19 16 -16 55 5 55 8 0 15 -7 15 -15 0 -8 -6 -14 -12 -12 -7 1 -13
-2 -13 -8 0 -16 20 -12 56 11 19 11 32 25 28 30 -3 5 -3 9 -1 9 3 0 21 -22 41
-50z m59 -155 c-15 -30 -30 -55 -34 -55 -3 0 -14 10 -25 22 -17 19 -17 21 -1
15 18 -7 21 1 11 27 -3 8 -12 12 -20 9 -8 -3 -11 -10 -7 -17 4 -6 -1 -5 -10 3
-25 20 -21 31 11 31 15 1 41 7 57 14 17 7 33 11 37 9 4 -2 -5 -28 -19 -58z
m65 3 c7 -7 12 -30 12 -51 0 -34 2 -38 15 -27 9 7 14 19 11 27 -6 16 6 17 20
3 8 -8 -1 -23 -29 -50 -21 -22 -43 -38 -47 -35 -4 3 -5 26 -2 52 l5 48 -22
-19 c-12 -11 -19 -26 -17 -33 7 -18 -9 -16 -24 2 -9 11 -9 15 -1 15 17 0 61
53 56 68 -6 15 7 16 23 0z"/>
<path d="M2172 978 c-22 -57 -95 -202 -129 -258 -40 -64 -185 -199 -267 -245
-107 -62 -117 -67 -186 -90 -82 -28 -89 -39 -64 -101 17 -41 27 -51 59 -62 33
-11 41 -10 64 5 14 10 31 18 36 18 19 1 162 74 175 90 7 8 10 21 7 28 -4 10 1
13 17 10 13 -3 29 3 40 16 11 12 28 21 39 21 29 0 237 223 237 255 0 6 9 20
19 29 11 10 22 30 26 44 4 15 14 35 22 44 9 10 16 32 17 50 1 21 9 40 24 51
12 10 22 29 22 42 0 26 -24 55 -44 55 -7 0 -25 9 -39 20 -39 31 -57 25 -75
-22z m67 -9 c22 -22 37 -29 51 -24 23 7 24 6 10 -30 -9 -24 -11 -25 -26 -10
-9 9 -23 14 -31 11 -8 -3 -24 -6 -35 -6 -17 0 -18 -3 -9 -14 10 -12 8 -15 -11
-18 -21 -3 -19 -6 17 -24 22 -12 46 -19 53 -17 10 4 9 -4 -4 -28 -12 -23 -19
-29 -21 -18 -4 16 -71 54 -81 45 -3 -3 1 -12 8 -21 17 -20 8 -28 -14 -12 -16
11 -14 18 18 87 19 41 35 69 36 63 0 -15 30 -18 30 -3 0 6 -7 13 -15 16 -8 4
-15 12 -15 20 0 20 5 18 39 -17z m-46 -216 c15 -3 27 -9 27 -12 0 -13 -29 -46
-30 -34 0 14 -69 55 -81 48 -12 -8 -11 2 1 26 11 19 11 19 33 -2 12 -11 34
-23 50 -26z m-83 -28 c10 -13 9 -15 -8 -15 -12 0 -24 -5 -27 -11 -12 -18 1
-20 34 -3 55 27 81 -16 40 -65 -19 -23 -21 -23 -37 -8 -15 16 -15 17 5 17 22
0 40 17 29 27 -3 3 -20 0 -37 -7 -28 -12 -33 -12 -45 5 -11 15 -11 22 3 46 20
33 26 35 43 14z m-56 -104 c-1 -20 3 -22 28 -19 22 4 28 1 26 -11 -3 -11 -13
-15 -37 -13 -20 1 -30 -2 -26 -8 3 -5 16 -10 28 -10 l21 0 -21 -21 -21 -22
-32 37 c-18 20 -36 33 -41 30 -6 -3 -6 -11 1 -19 9 -11 5 -14 -16 -17 -18 -2
-28 -10 -30 -23 -3 -20 -2 -20 12 -1 7 11 15 18 17 15 1 -2 9 -13 17 -23 14
-18 13 -19 -2 -13 -21 8 -24 -6 -5 -22 17 -14 27 -4 27 26 0 27 15 31 25 6 4
-13 -5 -28 -32 -53 -35 -33 -38 -34 -41 -14 -3 24 -48 71 -58 61 -3 -3 0 -29
7 -56 7 -28 10 -54 6 -57 -4 -4 -25 7 -46 24 -40 32 -61 40 -61 22 0 -18 34
-80 44 -80 13 -1 -24 -30 -38 -30 -5 0 -6 3 -3 6 8 8 -33 84 -45 84 -19 0 -18
-30 1 -68 11 -22 18 -42 14 -45 -3 -4 -23 3 -45 14 -22 11 -42 18 -45 16 -7
-8 16 -47 28 -47 6 0 7 -4 4 -10 -3 -5 -13 -10 -21 -10 -8 0 -13 4 -9 9 8 15
-27 81 -43 81 -10 0 -12 -6 -7 -22 22 -71 13 -98 -30 -98 -25 0 -39 14 -50 50
-4 14 -13 28 -19 32 -13 9 -8 14 27 22 19 4 26 3 22 -3 -3 -6 -3 -26 1 -46 4
-25 12 -35 25 -35 10 0 20 4 23 9 8 12 -14 71 -25 71 -22 0 -5 18 30 32 36 14
41 14 70 -4 26 -17 31 -18 31 -4 0 8 -8 20 -17 26 -10 6 -13 13 -8 16 6 2 35
20 65 39 l55 34 22 -21 c29 -27 36 -20 18 15 -12 24 -12 28 3 36 9 5 46 39 82
75 66 67 96 79 94 37z"/>
<path d="M687 443 c-13 -21 -27 -44 -31 -51 -13 -22 4 -52 42 -73 20 -11 55
-31 77 -44 48 -30 183 -75 222 -75 16 0 38 -7 49 -15 12 -8 40 -14 65 -13 24
1 104 -1 178 -5 159 -7 201 3 201 50 0 37 -14 57 -34 50 -12 -5 -16 0 -16 18
0 15 -10 31 -25 41 -22 14 -27 14 -54 1 -17 -8 -39 -13 -49 -10 -10 2 -24 -3
-32 -12 -12 -14 -15 -14 -36 6 -23 21 -44 26 -164 33 -25 2 -58 10 -75 18 -16
8 -70 30 -120 48 -49 18 -99 42 -111 52 -33 29 -61 23 -87 -19z m62 8 c10 -6
12 -19 8 -41 l-7 -31 26 20 c14 11 32 17 40 14 18 -7 18 -6 -6 -45 -11 -18
-20 -41 -20 -50 0 -10 -3 -18 -7 -18 -13 1 -48 30 -37 30 6 0 16 12 23 28 l13
27 -24 -22 c-35 -33 -48 -29 -43 10 l5 32 -13 -27 c-9 -19 -17 -24 -26 -19
-11 7 -9 13 8 30 11 11 23 32 27 46 7 27 12 29 33 16z m142 -73 c38 -11 53
-38 29 -53 -5 -3 -10 3 -10 13 0 11 -7 22 -15 26 -8 3 -15 4 -15 2 0 -3 -3
-12 -6 -20 -5 -12 -2 -15 10 -10 18 7 21 -3 7 -25 -6 -10 -10 -10 -16 -1 -6 9
-10 9 -16 -1 -5 -8 -9 -17 -9 -21 0 -13 35 -9 49 5 10 10 12 7 9 -13 -3 -28
-15 -29 -75 -4 -30 13 -34 18 -21 25 15 8 35 63 30 82 -3 10 4 9 49 -5z m127
-54 c18 -12 22 -23 20 -47 -4 -41 -36 -59 -83 -44 l-33 10 15 35 c8 19 12 44
9 54 -4 17 -1 19 22 13 15 -3 37 -13 50 -21z m102 -12 c0 -4 -4 -12 -9 -17
-15 -17 -20 -72 -8 -84 9 -10 6 -12 -18 -9 -24 2 -29 7 -25 23 2 11 4 37 5 58
0 34 2 37 28 37 15 0 27 -4 27 -8z m88 -8 c14 -4 22 -14 22 -28 -1 -19 -2 -19
-11 -3 -15 26 -47 22 -55 -7 -13 -54 30 -92 55 -48 9 15 10 15 11 1 0 -31 -53
-39 -82 -12 -24 21 -23 58 2 83 22 22 25 23 58 14z m207 -38 c1 -57 11 -67 35
-36 l20 25 0 -26 c0 -22 -6 -28 -31 -33 -50 -10 -71 -8 -63 6 11 17 5 80 -8
96 -8 9 -4 12 18 12 28 0 29 -2 29 -44z m-81 -23 l26 -53 -32 0 c-24 0 -29 3
-18 10 12 8 12 10 -2 15 -23 9 -45 -4 -27 -16 10 -6 6 -9 -13 -9 l-26 0 30 56
c17 30 31 54 33 52 1 -2 14 -27 29 -55z"/>
<path d="M980 305 c-12 -32 -13 -65 -2 -65 16 0 32 25 32 51 0 38 -18 46 -30
14z"/>
<path d="M1213 1946 c-91 -41 -96 -194 -8 -234 18 -9 25 -19 25 -41 l0 -29
-79 26 c-43 15 -77 31 -74 35 3 4 -8 5 -23 1 -21 -5 -25 -4 -19 6 5 8 4 11 -3
6 -6 -3 -53 0 -104 9 -51 8 -132 15 -181 15 l-87 0 2 -421 3 -422 115 -23
c171 -36 170 -36 164 -46 -4 -6 4 -5 16 2 12 6 24 9 27 6 3 -3 -2 -8 -11 -12
-22 -8 -10 -24 17 -23 12 0 16 3 10 6 -7 2 -13 9 -13 14 0 6 10 5 23 -2 21
-11 21 -11 5 7 -10 10 -28 18 -40 19 -13 0 -49 11 -80 24 l-58 25 0 328 0 328
63 0 c34 0 90 -7 122 -15 94 -24 91 -22 62 -53 -63 -67 -93 -180 -67 -257 14
-44 67 -106 116 -136 28 -17 32 -24 23 -35 -6 -8 -15 -12 -19 -9 -4 2 -15 -3
-23 -13 -14 -15 -15 -26 -7 -63 l9 -44 -3 42 c-2 25 1 49 10 60 7 10 14 14 14
9 0 -5 9 -1 21 10 11 10 59 39 107 64 55 29 94 57 108 77 12 18 24 30 26 27 3
-2 3 7 0 22 -4 21 -2 25 9 19 12 -8 12 -6 0 8 -7 9 -11 26 -8 37 3 13 1 18 -6
13 -7 -4 -8 0 -3 13 4 10 4 15 0 12 -6 -6 -21 11 -78 87 -16 21 1 42 48 60 44
17 47 17 66 0 38 -34 80 -134 80 -189 -1 -115 -70 -192 -225 -247 -68 -25
-125 -75 -125 -111 0 -13 -7 -33 -15 -44 -14 -18 -15 -18 -11 10 3 16 2 26 -1
22 -12 -12 -12 -40 -1 -54 21 -25 68 -44 82 -33 7 6 16 8 19 4 4 -3 7 -4 7 0
0 3 -13 19 -29 35 -22 22 -33 26 -42 18 -9 -8 -10 -7 -5 7 3 10 6 27 6 37 0
19 59 85 68 76 2 -3 8 -65 11 -138 5 -109 9 -133 21 -133 12 0 16 22 22 110 4
61 9 124 10 140 l3 30 33 -32 c23 -23 32 -40 32 -65 0 -46 -13 -60 -57 -61 -7
0 -13 -6 -13 -14 0 -10 5 -11 19 -4 10 6 21 7 25 4 4 -4 -6 -12 -21 -19 -25
-11 -25 -12 -7 -13 12 -1 27 6 34 14 7 8 9 15 6 15 -4 0 9 14 28 31 57 49 58
106 4 166 l-20 21 28 15 c37 19 87 73 108 114 35 71 15 189 -48 272 -14 19
-23 37 -21 41 3 5 29 13 57 20 65 15 118 39 118 52 0 10 -22 8 -84 -8 -15 -3
-26 -2 -26 4 0 6 31 16 70 23 63 11 70 15 80 42 11 32 14 87 4 87 -29 0 -219
-46 -271 -65 -36 -14 -67 -25 -69 -25 -2 0 -4 13 -4 30 0 23 7 33 30 45 77 40
78 183 2 224 -35 19 -96 22 -129 7z m123 -40 c20 -20 34 -54 34 -81 0 -34 -27
-85 -44 -85 -19 0 -46 -44 -46 -73 0 -13 8 -31 19 -41 17 -15 22 -15 86 6 66
22 67 22 81 3 8 -10 13 -31 12 -47 -2 -22 -11 -31 -49 -48 -26 -11 -54 -20
-61 -20 -8 0 -28 -12 -46 -27 -30 -26 -32 -33 -35 -105 -5 -106 -17 -116 -31
-27 -9 54 -30 67 -64 43 -35 -26 -72 -99 -72 -142 0 -40 13 -67 52 -109 31
-32 31 -57 0 -46 -35 13 -101 77 -118 114 -37 84 2 201 92 276 107 88 114 97
114 151 0 46 -4 54 -45 95 -35 36 -45 53 -45 79 0 43 32 95 62 101 32 6 90 -4
104 -17z m-499 -212 c6 -9 9 -22 6 -30 -3 -8 2 -25 11 -39 19 -29 20 -45 4
-45 -6 0 -20 -7 -30 -17 -17 -15 -18 -39 -18 -333 0 -174 -2 -319 -5 -322 -3
-2 -30 0 -60 5 l-55 10 0 393 c0 286 3 393 11 396 30 10 125 -2 136 -18z m228
-9 c49 -13 91 -28 93 -34 2 -5 10 -7 19 -4 12 5 14 3 8 -7 -5 -8 -4 -11 3 -7
16 11 42 -3 42 -22 -1 -9 -25 -32 -54 -52 l-53 -36 -104 27 c-82 21 -104 30
-103 43 1 9 -4 17 -12 17 -19 0 -34 33 -34 75 l0 37 53 -7 c28 -4 92 -18 142
-30z m565 -4 c0 -12 -28 -41 -40 -41 -9 0 -20 37 -12 44 9 10 52 7 52 -3z
m-80 -31 c0 -27 -27 -37 -47 -17 -20 19 -9 37 23 37 17 0 24 -5 24 -20z m-311
-437 c1 -40 -3 -73 -8 -73 -5 0 -25 18 -45 40 -54 60 -50 126 13 193 l26 29 6
-59 c4 -32 7 -91 8 -130z m137 115 c21 -40 17 -97 -8 -134 -22 -32 -56 -59
-65 -51 -2 3 -1 62 3 131 l7 127 24 -23 c14 -13 31 -35 39 -50z m-172 -460
c23 -24 1 -34 -29 -14 -14 9 -25 20 -25 25 0 13 37 6 54 -11z"/>
<path d="M977 1664 c-16 -16 -6 -35 16 -32 12 2 22 10 22 18 0 16 -26 25 -38
14z"/>
<path d="M1689 1738 c0 -2 -2 -25 -4 -51 -2 -35 -11 -61 -34 -93 l-31 -44 40
0 40 0 0 -328 0 -328 -66 -32 c-36 -18 -69 -30 -73 -28 -4 3 -17 -1 -27 -10
-18 -14 -18 -15 3 -5 14 7 24 8 28 1 3 -5 -1 -10 -9 -10 -8 0 -18 -4 -21 -10
-11 -18 14 -11 35 10 19 19 139 54 260 77 l45 9 3 422 2 422 -95 0 c-52 0 -95
-1 -96 -2z m161 -422 l0 -394 -30 -6 c-16 -3 -43 -9 -60 -12 l-30 -6 0 323 c0
313 -1 323 -21 345 -20 21 -20 24 -5 68 9 26 16 53 16 61 0 12 15 15 65 15
l65 0 0 -394z"/>
<path d="M1030 685 c-10 -12 -10 -15 4 -15 12 0 16 -10 16 -40 0 -29 4 -40 15
-40 12 0 15 13 15 55 0 47 -3 55 -19 55 -10 0 -24 -7 -31 -15z"/>
<path d="M1162 684 c-29 -20 -28 -31 8 -52 23 -14 27 -21 18 -30 -9 -9 -8 -12
4 -12 18 0 58 45 58 66 0 14 -38 44 -55 44 -6 0 -21 -7 -33 -16z m56 -27 c2
-12 -3 -17 -17 -17 -15 0 -21 6 -21 21 0 25 33 22 38 -4z"/>
<path d="M1294 684 c-18 -15 -17 -15 13 -10 31 5 60 -13 34 -22 -9 -3 -9 -7 0
-18 19 -23 -3 -39 -29 -23 -22 14 -39 8 -27 -10 10 -18 85 -14 92 5 3 8 1 20
-5 26 -9 9 -8 15 0 26 10 11 8 17 -7 28 -25 18 -47 18 -71 -2z"/>
<path d="M1420 685 c0 -9 9 -15 25 -15 30 0 30 0 4 -44 -20 -35 -20 -36 -2
-36 13 0 29 16 46 49 15 27 27 51 27 55 0 3 -22 6 -50 6 -38 0 -50 -4 -50 -15z"/>
</g>
</svg>
