<?xml version="1.0" standalone="no"?>
<!DOCTYPE svg PUBLIC "-//W3C//DTD SVG 20010904//EN"
 "http://www.w3.org/TR/2001/REC-SVG-20010904/DTD/svg10.dtd">
<svg version="1.0" xmlns="http://www.w3.org/2000/svg"
 width="300.000000pt" height="300.000000pt" viewBox="0 0 300.000000 300.000000"
 preserveAspectRatio="xMidYMid meet">
<metadata>
Created by potrace 1.10, written by Peter Selinger 2001-2011
</metadata>
<g transform="translate(0.000000,300.000000) scale(0.100000,-0.100000)"
fill="#000000" stroke="none">
<path d="M1382 2564 c-82 -42 -125 -101 -149 -204 -23 -98 41 -229 110 -223
15 1 27 -2 27 -8 0 -22 30 -5 82 49 64 65 94 117 107 186 10 53 4 80 -27 141
-40 79 -80 95 -150 59z m95 -36 c23 -18 53 -95 53 -134 0 -50 -40 -133 -90
-185 -29 -31 -44 -39 -72 -39 -40 0 -59 13 -87 60 -25 41 -27 88 -6 157 19 62
46 97 104 134 44 29 69 30 98 7z"/>
<path d="M2175 2293 c-11 -3 -49 -14 -85 -25 -36 -11 -72 -21 -80 -23 -8 -2
-53 -15 -99 -30 -46 -15 -94 -29 -105 -31 -43 -8 -406 -139 -478 -172 -26 -12
-50 -22 -53 -22 -11 0 -146 -59 -197 -86 -26 -14 -50 -25 -53 -24 -24 4 -501
-248 -557 -294 -36 -30 -50 -59 -26 -54 13 3 38 -38 38 -64 0 -22 13 -23 30
-3 7 8 19 15 27 15 8 0 29 12 46 26 26 22 32 23 45 11 12 -13 25 -10 101 28
47 24 124 60 171 80 47 20 110 48 140 62 30 13 62 25 70 27 8 2 26 8 40 13 73
31 130 52 130 48 0 -2 29 9 64 25 35 16 74 31 87 34 13 2 51 16 84 29 33 14
74 28 90 31 17 3 63 17 104 31 41 14 84 27 95 30 12 2 66 17 121 33 116 34
253 72 275 76 14 3 58 13 91 22 29 8 14 98 -33 192 -11 22 -35 26 -83 15z m79
-84 c24 -59 16 -96 -22 -105 -69 -15 -411 -109 -537 -148 -77 -24 -149 -46
-160 -49 -92 -24 -701 -269 -827 -333 -26 -13 -59 -24 -73 -24 -15 0 -49 -10
-77 -22 -53 -22 -67 -17 -68 24 0 41 419 253 850 430 254 104 800 279 860 275
31 -2 36 -7 54 -48z"/>
<path d="M2290 1985 c-74 -25 -176 -58 -227 -75 -50 -17 -100 -33 -110 -35
-18 -4 -241 -82 -298 -105 -16 -6 -31 -11 -33 -10 -1 0 -25 -9 -52 -21 -48
-21 -65 -39 -37 -39 22 0 246 -211 268 -252 9 -17 12 -16 57 7 101 53 294 145
427 205 291 130 288 129 281 156 -26 101 -91 215 -124 213 -9 0 -78 -20 -152
-44z m184 -32 c31 -46 57 -119 50 -137 -3 -7 -96 -55 -207 -106 -111 -51 -266
-124 -345 -162 l-144 -70 -76 73 c-42 40 -94 89 -114 109 -21 19 -38 40 -38
46 0 7 58 32 129 58 206 74 674 225 698 226 15 0 31 -12 47 -37z"/>
<path d="M2775 1649 c-16 -5 -48 -11 -71 -13 -23 -3 -75 -15 -117 -26 -41 -11
-88 -23 -104 -25 -32 -5 -67 -14 -171 -43 -40 -12 -73 -21 -75 -20 -1 0 -48
-14 -105 -32 -57 -18 -109 -33 -115 -34 -15 -3 -149 -47 -160 -53 -4 -2 10
-24 30 -48 21 -23 48 -62 59 -86 43 -87 67 -149 61 -156 -4 -3 -2 -12 3 -18 6
-7 11 -37 11 -69 1 -31 3 -56 5 -56 2 0 23 9 46 19 24 11 84 34 133 51 141 49
160 60 161 95 1 17 -3 45 -9 62 -12 36 -10 41 19 46 10 1 53 15 94 29 86 30
248 80 270 83 8 1 22 5 30 8 8 3 39 11 68 17 58 13 75 35 74 95 -1 47 -18 116
-39 158 -15 29 -40 34 -98 16z m80 -62 c22 -53 29 -129 13 -149 -8 -10 -78
-36 -173 -63 -218 -63 -324 -101 -350 -125 -18 -17 -21 -29 -17 -68 3 -34 0
-51 -10 -60 -22 -18 -240 -93 -255 -88 -7 3 -13 16 -13 28 0 60 -74 241 -117
290 -20 22 -11 44 19 50 13 3 77 22 143 43 128 40 200 60 390 106 228 56 280
67 318 68 34 1 40 -3 52 -32z"/>
<path d="M895 1451 c-187 -93 -383 -193 -435 -221 -52 -29 -130 -71 -173 -94
-105 -55 -137 -83 -137 -121 -1 -38 4 -62 19 -100 6 -16 14 -36 16 -43 9 -26
35 -22 156 26 68 27 149 59 179 71 l55 21 -50 -3 c-42 -3 -170 -44 -240 -76
-64 -30 -78 -23 -95 53 -9 39 -8 53 4 71 28 43 972 532 991 513 5 -5 -24 -97
-49 -150 -31 -69 -99 -238 -146 -363 -75 -203 -56 -183 -243 -261 -59 -25
-241 -109 -449 -208 -54 -25 -104 -46 -111 -46 -26 0 -64 58 -77 117 -9 39 7
57 100 106 214 115 328 181 350 203 l25 25 -30 -11 c-16 -6 -34 -15 -40 -19
-8 -7 -240 -129 -366 -193 -20 -10 -46 -30 -59 -43 l-23 -25 18 -66 c12 -46
29 -80 52 -105 l34 -38 52 24 c29 14 122 58 207 99 85 41 234 108 330 151 96
42 180 82 186 88 6 7 26 55 44 107 18 52 38 104 43 115 6 11 12 27 14 36 1 9
12 38 24 65 11 27 22 56 24 64 2 8 23 58 46 110 35 81 109 274 109 286 0 10
-39 -8 -355 -165z"/>
<path d="M1480 1261 c0 -19 -9 -40 -98 -221 -66 -136 -193 -374 -204 -385 -7
-7 -12 -6 -15 3 -3 8 -9 10 -16 4 -17 -13 -57 -21 -57 -12 0 9 -33 22 -60 24
-29 2 -80 31 -86 48 -8 28 -11 27 -139 -49 -48 -28 -50 -31 -49 -75 0 -51 45
-152 73 -167 13 -8 53 9 167 67 152 78 364 181 597 291 l127 60 -3 39 c-2 21
-6 43 -9 48 -3 5 -11 27 -18 49 -26 83 -83 179 -139 236 -32 33 -60 59 -64 59
-4 0 -7 -9 -7 -19z m75 -92 c73 -81 145 -274 114 -303 -18 -17 -417 -206 -435
-206 -9 0 13 50 57 133 39 72 102 196 140 275 38 78 73 142 78 142 5 0 25 -18
46 -41z m-596 -500 c29 -21 79 -38 144 -46 l39 -5 -29 -20 c-50 -34 -243 -128
-262 -128 -36 0 -77 121 -53 155 12 17 96 64 115 65 10 0 30 -9 46 -21z"/>
</g>
</svg>
