<?xml version="1.0" standalone="no"?>
<!DOCTYPE svg PUBLIC "-//W3C//DTD SVG 20010904//EN"
 "http://www.w3.org/TR/2001/REC-SVG-20010904/DTD/svg10.dtd">
<svg version="1.0" xmlns="http://www.w3.org/2000/svg"
 width="300.000000pt" height="300.000000pt" viewBox="0 0 300.000000 300.000000"
 preserveAspectRatio="xMidYMid meet">
<metadata>
Created by potrace 1.10, written by Peter Selinger 2001-2011
</metadata>
<g transform="translate(0.000000,300.000000) scale(0.100000,-0.100000)"
fill="#000000" stroke="none">
<path d="M1295 2983 c-289 -34 -599 -184 -822 -396 -203 -195 -335 -412 -412
-681 -40 -141 -46 -194 -46 -421 0 -215 9 -273 66 -449 111 -339 345 -633 650
-817 433 -260 988 -280 1441 -53 407 204 697 583 795 1036 23 105 26 488 5
583 -132 602 -559 1040 -1152 1180 -77 18 -303 31 -280 17 13 -9 44 -16 170
-39 248 -44 402 -102 587 -220 113 -72 307 -251 367 -338 106 -156 153 -241
194 -351 31 -82 57 -167 67 -219 3 -16 7 -41 10 -55 6 -33 37 -230 40 -255 1
-11 -2 -36 -6 -55 -5 -19 -13 -73 -20 -120 -74 -566 -451 -1029 -984 -1207
-87 -29 -153 -46 -225 -59 -19 -3 -60 -10 -90 -15 -125 -21 -325 -5 -495 38
-432 109 -779 392 -972 793 -36 74 -92 241 -108 319 -44 216 -49 330 -19 501
25 148 36 190 71 290 168 473 580 835 1065 934 42 9 94 18 115 21 48 8 155 34
162 40 5 5 -126 4 -174 -2z"/>
<path d="M1355 2934 c-82 -8 -285 -52 -300 -65 -5 -5 -17 -9 -26 -9 -36 0
-329 -151 -349 -180 -3 -4 -23 -19 -46 -33 -57 -35 -245 -222 -279 -277 -15
-25 -31 -47 -34 -50 -16 -12 -95 -148 -126 -215 -70 -155 -110 -297 -120 -430
-4 -44 -8 -102 -10 -130 -7 -89 15 -296 41 -395 49 -178 99 -292 195 -436 66
-100 71 -106 189 -225 84 -84 264 -229 285 -229 2 0 26 -13 52 -28 54 -32 185
-85 283 -114 69 -20 75 -22 133 -32 88 -16 120 -18 272 -17 129 0 183 5 275
24 339 72 647 265 847 535 32 42 61 79 66 80 4 2 7 8 7 14 0 5 9 22 20 37 57
81 153 315 175 431 4 19 10 39 12 43 16 27 24 395 10 472 -23 127 -54 245 -83
315 -45 108 -150 295 -189 336 -5 6 -19 24 -30 40 -42 61 -174 189 -260 253
-190 141 -420 243 -605 267 -19 3 -42 7 -50 10 -19 7 -301 13 -355 8z m360
-49 c455 -74 835 -353 1038 -761 58 -115 90 -206 119 -335 31 -140 33 -416 4
-554 -117 -559 -536 -983 -1090 -1103 -103 -22 -145 -26 -286 -25 -242 0 -413
40 -623 144 -144 72 -238 140 -363 264 -285 283 -428 649 -411 1045 24 514
315 965 774 1194 139 69 276 111 453 139 65 11 303 6 385 -8z"/>
<path d="M1360 2854 c-81 -10 -239 -48 -319 -76 -387 -136 -702 -460 -829
-854 -49 -149 -66 -261 -65 -429 1 -223 35 -375 133 -582 64 -134 134 -236
246 -353 257 -268 598 -412 974 -413 651 0 1189 440 1332 1091 31 139 31 385
0 530 -117 541 -520 947 -1056 1063 -89 19 -336 33 -416 23z m345 -39 c185
-30 349 -91 501 -186 575 -361 787 -1099 490 -1704 -73 -148 -159 -267 -276
-379 -146 -140 -316 -245 -495 -305 -262 -87 -590 -87 -849 1 -442 150 -778
529 -878 990 -31 143 -31 398 0 538 99 451 400 805 827 973 76 30 207 63 315
80 64 10 284 5 365 -8z"/>
<path d="M1758 2670 c-9 -6 -19 -28 -23 -50 -8 -45 -11 -46 -62 -25 -46 20
-63 13 -63 -23 0 -35 16 -52 50 -52 36 0 42 -8 24 -35 -19 -29 -65 -49 -104
-43 -39 6 -38 -4 5 -36 l35 -27 34 20 c19 12 41 33 50 46 9 14 20 25 25 25 5
0 19 -32 31 -71 31 -97 43 -109 113 -116 65 -7 74 5 23 30 -37 17 -86 80 -112
146 -21 54 -14 71 31 71 20 0 45 5 56 10 15 9 17 14 7 29 -9 15 -19 18 -45 14
-35 -6 -45 11 -22 34 9 9 8 18 -5 37 -18 28 -23 30 -48 16z m22 -98 c0 -5 -11
-19 -25 -32 -19 -18 -28 -21 -37 -12 -8 8 -5 16 13 31 25 21 49 27 49 13z"/>
<path d="M1130 2615 c-12 -14 -9 -21 60 -168 18 -37 18 -37 -3 -52 -29 -20
-33 -19 -47 15 -11 27 -45 49 -56 37 -5 -5 21 -95 36 -127 4 -8 18 -16 32 -18
20 -2 27 2 31 20 4 13 21 32 39 42 18 11 46 33 61 50 18 20 30 27 33 19 3 -7
14 -23 24 -35 l18 -23 11 28 c13 33 -3 119 -26 143 -26 26 -48 13 -45 -27 2
-25 -3 -41 -18 -54 -27 -24 -34 -16 -69 75 -30 77 -58 103 -81 75z"/>
<path d="M794 2432 c-6 -4 -19 -22 -29 -39 -22 -38 -35 -41 -60 -13 -23 26
-51 26 -65 -1 -10 -18 -7 -25 26 -53 36 -31 37 -33 25 -68 -7 -20 -19 -42 -27
-48 -7 -7 -14 -16 -14 -21 0 -19 60 -95 77 -97 10 -1 27 -3 37 -4 15 -2 21 5
26 28 16 72 14 72 105 -15 85 -81 115 -98 115 -62 0 17 -93 131 -143 174 l-21
19 22 38 c28 49 28 66 1 73 -19 5 -21 11 -16 40 7 47 -24 73 -59 49z m14 -110
c4 -37 -7 -41 -33 -12 -15 16 -16 22 -5 35 19 23 35 13 38 -23z m12 -89 c0
-30 -14 -29 -28 1 -10 22 -9 25 9 23 13 -1 19 -9 19 -24z m-61 -38 c-13 -13
-18 -13 -33 -2 -16 12 -17 17 -6 37 l12 22 21 -21 c19 -19 20 -23 6 -36z"/>
<path d="M2151 2340 c-39 -60 -50 -68 -66 -47 -7 10 -16 17 -20 17 -15 0 -75
-65 -75 -82 0 -24 17 -22 64 6 l39 23 61 -23 c66 -26 141 -72 132 -81 -3 -3
-36 10 -73 29 -87 45 -126 55 -121 32 2 -11 19 -21 46 -28 44 -11 59 -33 20
-28 -12 1 -25 -3 -29 -9 -4 -8 -19 -3 -45 15 -43 29 -64 33 -64 12 0 -20 22
-40 59 -56 34 -14 39 -31 16 -50 -12 -10 -20 -8 -41 9 -37 29 -44 26 -32 -11
6 -18 12 -39 14 -45 6 -25 64 -14 96 17 16 17 33 30 37 30 4 0 18 -11 31 -25
30 -32 50 -32 50 0 0 19 -9 29 -35 42 -20 9 -34 22 -32 27 6 19 86 14 113 -6
13 -11 32 -18 42 -16 24 5 18 48 -11 70 l-22 17 48 21 c58 26 65 59 17 77 -29
11 -30 11 -23 -15 6 -24 5 -26 -10 -13 -25 20 -21 48 8 55 18 5 25 13 25 31 0
29 -7 31 -31 9 -19 -17 -39 -12 -39 10 0 8 -8 16 -17 20 -10 3 -22 8 -28 11
-5 2 -28 -22 -50 -55 -22 -33 -46 -60 -52 -60 -21 0 -15 14 17 45 27 26 42 75
22 75 -5 0 -23 -22 -41 -50z m115 -25 c-26 -20 -41 -7 -20 16 13 14 21 16 28
9 8 -8 6 -15 -8 -25z m-36 -40 c0 -18 -24 -30 -40 -20 -8 5 -5 11 7 21 24 18
33 17 33 -1z"/>
<path d="M1372 2119 c-67 -26 -145 -99 -181 -169 -27 -54 -28 -55 -82 -63
-126 -17 -260 -123 -322 -254 -30 -64 -32 -74 -32 -183 0 -109 2 -119 32 -182
65 -138 213 -251 338 -260 33 -2 39 -7 67 -60 38 -71 102 -132 174 -165 80
-36 189 -35 273 2 72 33 148 109 176 176 18 43 22 47 55 47 92 1 227 83 300
180 100 135 108 356 16 500 -64 102 -189 186 -294 199 -53 6 -53 6 -82 63 -36
72 -114 143 -186 169 -73 28 -180 27 -252 0z m244 -58 c22 -10 57 -33 79 -52
37 -33 85 -117 85 -150 0 -12 14 -18 59 -22 89 -10 164 -42 225 -98 69 -63
102 -120 123 -210 50 -224 -112 -441 -348 -466 -51 -5 -59 -9 -59 -27 0 -31
-54 -119 -92 -151 -110 -93 -271 -92 -380 4 -38 33 -88 121 -88 153 0 14 -8
18 -38 18 -174 0 -342 149 -371 329 -37 227 148 449 374 451 28 0 32 4 43 44
24 90 118 176 212 195 56 12 123 5 176 -18z"/>
<path d="M1412 2037 c-76 -28 -147 -111 -160 -188 l-8 -44 -74 -6 c-133 -11
-234 -79 -292 -197 -30 -60 -33 -75 -33 -152 0 -71 5 -94 26 -140 60 -127 170
-202 306 -209 l73 -3 0 -32 c1 -49 33 -108 85 -154 53 -47 95 -62 173 -62 65
0 108 17 162 66 48 44 69 79 78 137 l8 42 74 6 c132 11 234 79 291 194 72 146
40 309 -81 419 -59 53 -121 78 -206 84 l-71 4 -17 60 c-19 69 -75 136 -140
168 -48 23 -140 26 -194 7z m161 -18 c79 -22 156 -121 159 -204 l1 -35 57 0
c116 0 226 -55 287 -144 18 -27 33 -52 33 -56 0 -4 -22 -10 -50 -12 -58 -6
-113 -43 -137 -94 l-17 -34 -153 0 c-95 0 -153 -4 -153 -10 0 -6 57 -10 150
-10 127 0 150 -2 150 -15 0 -13 -23 -15 -150 -15 -93 0 -150 -4 -150 -10 0 -5
24 -10 54 -10 l54 0 -29 -29 -29 -29 0 -137 c0 -125 -2 -136 -17 -133 -16 3
-18 17 -21 106 -2 86 0 102 13 102 8 0 15 5 15 10 0 6 -16 10 -35 10 -31 0
-35 -3 -35 -25 0 -28 -3 -29 -31 -14 -12 6 -18 17 -15 25 4 10 -3 14 -23 14
-23 0 -28 -4 -25 -17 3 -11 -3 -23 -16 -31 -18 -11 -20 -10 -20 18 0 29 -2 30
-42 30 -38 -1 -41 -2 -25 -14 15 -12 17 -27 15 -112 -3 -85 -5 -99 -20 -102
-16 -3 -18 8 -18 133 l0 137 -29 29 -29 29 54 0 c30 0 54 5 54 10 0 6 -57 10
-150 10 -127 0 -150 2 -150 15 0 13 23 15 150 15 93 0 150 4 150 10 0 6 -58
10 -154 10 l-154 0 -12 29 c-24 59 -88 101 -156 101 -19 0 -34 4 -34 8 0 15
64 99 97 126 52 43 119 68 204 73 l79 6 0 35 c0 76 72 169 151 198 43 16 103
17 152 3z m-574 -511 c30 -21 61 -67 75 -110 3 -10 30 -37 60 -60 31 -24 60
-56 67 -73 6 -16 20 -49 32 -72 31 -61 18 -71 -75 -55 -119 21 -200 78 -253
182 -17 34 -31 182 -19 202 11 17 81 8 113 -14z m1122 -24 c12 -96 -36 -214
-114 -277 -50 -41 -148 -77 -212 -77 -54 0 -57 11 -19 76 14 24 23 44 20 44
-15 0 34 61 73 91 26 20 57 57 75 92 38 71 76 98 131 95 39 -3 40 -4 46 -44z
m-900 -130 c-21 -15 -26 -15 -55 -1 l-31 16 55 0 c53 1 54 1 31 -15z m617 0
c-34 -14 -39 -14 -60 0 -22 15 -20 16 37 15 l60 0 -37 -15z m-532 -29 c20 -20
25 -33 22 -67 -3 -41 -4 -41 -42 -42 -36 -1 -40 1 -43 29 -2 17 -10 39 -18 51
-12 18 -11 23 3 38 23 23 49 20 78 -9z m467 7 c13 -14 14 -21 5 -30 -6 -6 -14
-28 -17 -49 -6 -37 -8 -38 -46 -37 -40 1 -40 1 -43 42 -3 34 2 47 22 67 30 30
57 32 79 7z m-229 -131 c13 -14 18 -38 19 -87 l1 -67 -62 -1 -62 -1 0 69 c0
51 5 74 17 88 21 24 65 23 87 -1z m-214 -81 c0 -54 -4 -72 -15 -77 -9 -3 -17
-4 -19 -2 -2 2 -6 37 -8 77 -4 69 -3 72 19 72 22 0 23 -4 23 -70z m392 58 c-7
-7 -12 -39 -12 -76 0 -55 -2 -63 -17 -60 -15 3 -19 16 -21 76 l-3 72 33 0 c25
0 29 -3 20 -12z m-16 -185 c-38 -73 -121 -123 -206 -123 -85 0 -168 50 -206
123 l-15 27 221 0 221 0 -15 -27z"/>
<path d="M1490 1944 c0 -14 -9 -38 -20 -53 -19 -28 -19 -28 0 -49 21 -22 27
-52 10 -52 -5 0 -10 9 -10 20 0 11 -5 20 -10 20 -6 0 -10 -8 -8 -17 2 -13 -3
-17 -19 -16 -17 2 -23 -2 -23 -17 0 -11 -7 -20 -15 -20 -8 0 -15 -4 -15 -10 0
-6 47 -10 120 -10 73 0 120 4 120 10 0 6 -7 10 -15 10 -8 0 -15 9 -15 20 0 15
-6 19 -22 17 -15 -1 -23 3 -23 13 0 8 -4 18 -9 22 -6 4 -5 12 1 20 9 10 7 19
-7 38 -11 14 -20 37 -20 53 0 15 -4 27 -10 27 -5 0 -10 -12 -10 -26z"/>
<path d="M1410 1525 c0 -123 -4 -195 -10 -195 -5 0 -10 -11 -10 -25 l0 -25
110 0 110 0 0 25 c0 14 -4 25 -10 25 -6 0 -10 72 -10 195 l0 195 -25 0 c-24 0
-25 -2 -25 -64 l0 -63 -40 0 -40 0 0 63 c0 62 -1 64 -25 64 l-25 0 0 -195z
m121 45 c5 0 9 -40 9 -90 l0 -90 -40 0 -40 0 0 89 c0 77 2 90 18 94 9 3 23 3
30 1 8 -2 18 -4 23 -4z m9 -220 c0 -17 -7 -20 -40 -20 -33 0 -40 3 -40 20 0
17 7 20 40 20 33 0 40 -3 40 -20z"/>
<path d="M1490 1480 c0 -27 5 -50 10 -50 6 0 10 23 10 50 0 28 -4 50 -10 50
-5 0 -10 -22 -10 -50z"/>
<path d="M1487 1673 c-14 -13 -6 -33 13 -33 13 0 20 7 20 20 0 19 -20 27 -33
13z"/>
<path d="M1386 964 c-6 -24 -2 -43 8 -33 11 10 17 59 8 59 -5 0 -13 -12 -16
-26z"/>
<path d="M1437 983 c-12 -11 -8 -21 11 -26 13 -4 11 -5 -5 -6 -13 0 -23 -6
-23 -12 0 -6 12 -9 28 -7 21 2 28 9 30 31 3 21 -1 27 -16 27 -10 0 -22 -3 -25
-7z"/>
<path d="M1577 983 c-13 -12 -7 -31 11 -37 9 -3 23 -9 30 -12 19 -9 14 14 -8
36 -22 22 -24 23 -33 13z"/>
<path d="M1507 953 c-15 -14 -5 -23 26 -23 30 1 31 1 13 15 -22 17 -29 18 -39
8z"/>
<path d="M405 1912 c3 -8 -2 -23 -12 -34 -25 -28 -22 -86 6 -109 37 -30 65
-24 116 27 51 50 78 54 83 12 3 -28 -27 -58 -61 -58 -28 0 -11 -17 22 -22 17
-2 28 -1 25 4 -3 4 4 20 15 34 26 34 26 54 0 88 -30 38 -60 33 -120 -20 -53
-47 -65 -50 -83 -21 -17 27 12 71 49 75 49 6 49 18 0 29 -40 9 -45 8 -40 -5z"/>
<path d="M2621 1909 c-1 -21 -8 -28 -38 -37 -31 -9 -50 -8 -107 8 -38 11 -74
25 -79 32 -6 9 -7 4 -3 -12 3 -14 6 -31 6 -37 0 -7 5 -13 10 -13 6 0 9 6 8 13
-3 14 0 14 65 3 26 -5 47 -11 47 -15 0 -4 -18 -25 -40 -46 -34 -33 -42 -37
-50 -25 -13 20 -12 8 1 -45 l11 -44 59 63 c65 70 113 91 136 59 21 -28 20 -12
-3 57 -15 43 -23 56 -23 39z"/>
<path d="M368 1696 c-20 -15 -38 -58 -38 -91 0 -46 29 -65 120 -78 63 -9 85
-16 85 -27 0 -12 -20 -16 -102 -18 -90 -2 -102 -1 -106 15 -3 10 -5 -4 -5 -32
-1 -41 1 -46 10 -29 8 18 22 23 85 28 41 4 77 5 80 2 5 -4 -52 -59 -127 -121
-25 -20 -47 -39 -50 -42 -3 -3 46 -3 108 0 93 5 114 4 119 -8 11 -29 18 -14
14 28 -2 23 -6 35 -9 27 -8 -24 -23 -30 -80 -30 l-54 0 66 57 c49 42 66 63 66
82 0 14 3 44 6 66 6 35 5 38 -7 23 -13 -16 -22 -17 -84 -7 -83 13 -115 30
-115 64 0 29 26 57 49 51 9 -2 41 -7 71 -11 76 -9 90 -14 90 -32 0 -32 7 -7
14 47 4 35 3 50 -3 41 -7 -11 -22 -12 -85 -2 -94 14 -97 14 -118 -3z"/>
<path d="M2464 1638 c3 -24 9 -71 12 -105 l7 -63 33 0 c19 0 34 5 34 10 0 6
-8 10 -18 10 -23 0 -42 19 -42 41 0 13 18 19 97 29 91 12 97 12 111 -6 14 -18
14 -18 8 6 -3 14 -6 42 -6 63 0 20 -5 37 -11 37 -5 0 -8 -4 -5 -9 10 -16 -19
-28 -97 -40 -43 -6 -84 -11 -92 -11 -24 0 -18 47 7 64 22 16 22 16 -11 16
l-34 0 7 -42z"/>
<path d="M2471 1407 c-1 -54 0 -57 15 -42 9 9 23 14 31 11 8 -3 50 -6 93 -6
66 0 79 -3 83 -17 3 -10 5 11 5 47 0 36 -2 58 -5 48 -6 -24 -19 -26 -120 -21
-73 5 -93 9 -96 22 -3 9 -5 -10 -6 -42z"/>
<path d="M2457 1309 c3 -9 0 -20 -6 -23 -19 -12 -13 -74 9 -96 32 -32 60 -25
111 30 51 55 72 61 90 29 15 -28 -17 -73 -54 -77 -36 -4 -34 -22 2 -22 16 0
38 -3 48 -7 15 -6 16 -4 6 8 -10 13 -10 19 2 35 36 48 3 124 -55 124 -22 0
-38 -11 -71 -50 -45 -53 -73 -63 -84 -30 -9 27 19 70 45 70 36 0 30 18 -8 22
-32 3 -38 0 -35 -13z"/>
<path d="M563 1224 c9 -9 -10 -41 -56 -96 -43 -52 -100 -74 -119 -47 -7 10 -8
9 -3 -6 5 -11 15 -40 24 -65 12 -36 16 -40 19 -22 6 39 59 53 141 38 37 -7 74
-16 80 -20 9 -6 10 0 5 21 -8 34 -24 54 -24 30 0 -11 -8 -17 -24 -17 -34 0
-86 11 -86 19 1 3 17 24 36 46 28 32 37 37 44 25 15 -23 12 -3 -7 51 -10 27
-22 49 -27 49 -5 0 -6 -3 -3 -6z"/>
<path d="M2426 1132 c-9 -11 -27 -47 -41 -82 -26 -67 -31 -85 -16 -61 7 12 26
7 103 -26 76 -32 92 -43 90 -59 -5 -27 10 -10 24 29 6 17 15 41 19 52 5 16 5
17 -4 5 -9 -13 -15 -13 -52 0 -22 8 -42 19 -43 25 0 5 27 16 62 25 51 12 65
20 77 44 8 15 15 29 15 31 0 1 -25 -6 -57 -16 -73 -25 -83 -24 -83 6 0 43 -63
61 -94 27z m69 -57 c9 -13 10 -28 4 -42 -8 -22 -9 -22 -46 -7 -51 21 -57 28
-43 54 14 27 67 24 85 -5z"/>
<path d="M590 953 c-47 -8 -102 -12 -122 -10 -41 5 -41 -2 -3 -48 14 -17 16
-17 11 -2 -4 12 1 20 17 27 18 7 27 3 50 -23 l28 -32 -15 31 c-15 31 -14 32 7
38 12 3 30 6 39 6 16 0 16 -3 -2 -32 -32 -54 -71 -94 -76 -80 -3 6 -10 12 -14
12 -5 0 5 -23 23 -52 24 -38 33 -47 36 -33 2 11 29 58 60 105 75 112 74 110
59 109 -7 -1 -51 -8 -98 -16z"/>
<path d="M2294 903 c-27 -37 -62 -79 -79 -94 -26 -25 -27 -28 -7 -23 14 4 23
1 26 -7 2 -8 12 -38 21 -68 9 -29 14 -55 11 -58 -3 -4 -81 35 -129 64 -4 3 -2
12 5 21 7 9 -5 3 -27 -14 -22 -17 -80 -52 -128 -76 -62 -32 -83 -47 -70 -50
16 -5 59 -95 49 -105 -2 -2 -35 15 -72 38 -67 40 -70 41 -112 30 -23 -6 -53
-11 -67 -11 -14 0 -25 -4 -25 -10 0 -5 6 -10 14 -10 9 0 18 -21 25 -63 16 -92
14 -114 -11 -131 -50 -35 -72 -11 -87 94 -11 75 -11 83 6 96 19 16 23 16 -66
-1 -9 -2 -23 -4 -31 -5 -10 -1 -8 -4 6 -10 18 -7 23 -22 32 -91 8 -68 15 -87
34 -102 32 -26 105 -18 131 14 19 24 19 31 0 172 -5 36 -3 38 18 35 20 -2 29
-17 53 -87 25 -71 27 -87 17 -104 -11 -17 -11 -19 4 -13 9 3 28 9 41 12 27 7
34 27 8 22 -13 -2 -25 16 -46 66 -15 39 -27 73 -26 77 2 4 49 -21 106 -56 56
-35 102 -62 102 -59 0 3 -16 50 -35 106 -27 77 -33 104 -24 114 24 29 44 13
91 -69 44 -78 46 -83 30 -101 -20 -22 -16 -21 56 17 57 30 64 38 30 34 -17 -2
-31 14 -70 81 -72 121 -59 128 95 50 56 -29 106 -55 111 -57 5 -2 6 5 2 15
-15 38 -56 203 -56 223 0 32 17 26 98 -35 59 -45 73 -60 68 -76 -2 -12 -1 -17
4 -12 22 24 110 144 110 151 0 4 -12 22 -27 38 -18 21 -24 24 -18 10 4 -11 9
-27 12 -36 6 -21 -23 -79 -39 -79 -15 0 -78 42 -78 53 0 4 -6 7 -12 7 -7 1
-26 11 -42 24 -24 20 -26 26 -17 44 15 29 43 42 72 36 l24 -6 -25 21 c-14 11
-28 21 -31 21 -3 0 -28 -30 -55 -67z"/>
<path d="M699 884 l-24 -25 29 11 c25 9 33 8 47 -7 17 -17 15 -21 -57 -86 -62
-57 -77 -67 -89 -57 -34 28 -11 -9 30 -50 25 -24 45 -40 45 -34 0 5 -4 14 -10
20 -15 15 123 149 145 140 14 -5 16 -14 12 -43 l-6 -36 25 24 25 23 -73 73
c-40 40 -73 73 -74 73 0 0 -11 -12 -25 -26z"/>
<path d="M2374 865 c8 -26 15 -33 28 -29 10 3 28 0 40 -6 24 -12 -33 42 -63
60 -14 8 -14 5 -5 -25z"/>
<path d="M932 690 c-12 -5 -28 -21 -34 -35 -10 -23 -8 -34 19 -87 32 -62 33
-82 7 -92 -36 -14 -76 38 -67 87 7 38 -3 34 -26 -12 -19 -36 -19 -39 -3 -45 9
-3 32 -17 51 -31 36 -27 61 -26 94 3 25 22 21 65 -10 121 -24 41 -26 51 -14
65 18 21 26 20 51 -6 14 -15 20 -32 17 -50 -5 -35 6 -36 22 -2 9 21 14 24 26
14 12 -10 11 -19 -6 -63 -48 -121 -57 -137 -76 -130 -10 3 -15 3 -11 -2 8 -8
167 -75 180 -75 9 0 41 60 35 66 -2 2 -12 -5 -22 -16 -21 -23 -43 -25 -80 -8
-29 13 -30 14 -10 62 19 45 39 42 43 -5 4 -34 4 -34 28 25 24 58 26 88 4 47
-10 -20 -50 -30 -50 -12 0 14 30 81 36 81 3 0 19 -8 34 -17 20 -11 30 -26 32
-47 l4 -31 12 28 c12 28 26 35 37 17 4 -6 1 -36 -5 -68 -22 -108 -30 -132 -47
-132 -26 0 -11 -7 32 -14 35 -7 38 -6 22 6 -16 12 -17 19 -8 58 6 25 11 60 11
78 0 17 4 32 9 32 4 0 32 -47 62 -105 30 -58 57 -105 62 -105 4 0 7 12 7 28 0
15 9 63 18 106 14 60 23 81 37 87 17 6 16 8 -10 14 -16 4 -36 8 -42 11 -17 5
-16 -6 1 -20 12 -9 13 -22 4 -70 l-10 -59 -44 79 c-37 67 -48 80 -76 87 -47
12 -212 79 -216 88 -2 4 -10 5 -18 2 -8 -3 -14 0 -14 6 0 10 -58 52 -70 50 -3
0 -15 -4 -28 -9z"/>
<path d="M794 666 c-4 -9 5 -25 23 -40 32 -29 39 -31 46 -13 3 8 -10 26 -29
41 -28 22 -35 24 -40 12z"/>
</g>
</svg>
