<?xml version="1.0" encoding="UTF-8"?>
<svg version="1.1" xmlns="http://www.w3.org/2000/svg" width="210" height="210">
<path d="M0 0 C69.3 0 138.6 0 210 0 C210 69.3 210 138.6 210 210 C140.7 210 71.4 210 0 210 C0 140.7 0 71.4 0 0 Z " fill="#1F9156" transform="translate(0,0)"/>
<path d="M0 0 C1.97637451 0.00845947 1.97637451 0.00845947 3.99267578 0.01708984 C27.7464121 0.31084855 51.40077154 5.11791489 69.2109375 22.0234375 C75.94050576 28.94190592 80.33738719 35.89954594 80.875 45.75 C80.3541051 57.28982541 73.4130721 64.5952041 65.44921875 72.21484375 C43.59455614 90.92922474 11.69513921 91.94533477 -15.5625 90.3125 C-34.30748494 87.95828518 -56.02821001 80.43678091 -68.21484375 65.25390625 C-73.83630328 57.32338755 -76.92568452 49.11813414 -75.5625 39.3125 C-71.84424707 26.18795245 -61.60682313 17.89057008 -50.19921875 11.3984375 C-34.05867607 2.96011152 -18.09551509 -0.08127076 0 0 Z " fill="#239158" transform="translate(102.5625,59.6875)"/>
<path d="M0 0 C1.97637451 0.00845947 1.97637451 0.00845947 3.99267578 0.01708984 C27.7464121 0.31084855 51.40077154 5.11791489 69.2109375 22.0234375 C75.94050576 28.94190592 80.33738719 35.89954594 80.875 45.75 C80.3541051 57.28982541 73.4130721 64.5952041 65.44921875 72.21484375 C43.59455614 90.92922474 11.69513921 91.94533477 -15.5625 90.3125 C-34.30748494 87.95828518 -56.02821001 80.43678091 -68.21484375 65.25390625 C-73.83630328 57.32338755 -76.92568452 49.11813414 -75.5625 39.3125 C-71.84424707 26.18795245 -61.60682313 17.89057008 -50.19921875 11.3984375 C-34.05867607 2.96011152 -18.09551509 -0.08127076 0 0 Z M-57.234375 24.7109375 C-58.66888931 26.09402544 -58.66888931 26.09402544 -58.5625 27.3125 C-50.6425 27.3125 -42.7225 27.3125 -34.5625 27.3125 C-34.5625 27.9725 -34.5625 28.6325 -34.5625 29.3125 C-36.2125 29.3125 -37.8625 29.3125 -39.5625 29.3125 C-39.87913816 36.02522902 -38.71824012 41.82378872 -37.0625 48.3125 C-36.82402344 49.27800781 -36.58554688 50.24351563 -36.33984375 51.23828125 C-35.75562132 53.59853987 -35.16303719 55.95634982 -34.5625 58.3125 C-32.05235368 55.80235368 -31.7439272 53.92294009 -30.8359375 50.5 C-30.5265625 49.34242187 -30.2171875 48.18484375 -29.8984375 46.9921875 C-29.42277344 45.17074219 -29.42277344 45.17074219 -28.9375 43.3125 C-28.61265625 42.09820312 -28.2878125 40.88390625 -27.953125 39.6328125 C-26.26632689 34.04725862 -26.26632689 34.04725862 -25.5625 28.3125 C-24.5725 28.3125 -23.5825 28.3125 -22.5625 28.3125 C-22.41554687 28.89773437 -22.26859375 29.48296875 -22.1171875 30.0859375 C-19.70782361 39.30798551 -16.62846658 48.29320026 -13.5625 57.3125 C-10.7843676 54.5343676 -10.64256491 51.4842467 -10 47.75 C-9.80603638 46.67105469 -9.80603638 46.67105469 -9.6081543 45.5703125 C-8.71556027 40.49914489 -8.02056584 35.44283739 -7.5625 30.3125 C-9.2125 29.9825 -10.8625 29.6525 -12.5625 29.3125 C-12.5625 28.6525 -12.5625 27.9925 -12.5625 27.3125 C-0.3525 27.3125 11.8575 27.3125 24.4375 27.3125 C24.1075 29.2925 23.7775 31.2725 23.4375 33.3125 C23.05851562 32.82265625 22.67953125 32.3328125 22.2890625 31.828125 C19.74421134 29.74499789 18.05745238 29.9768812 14.8125 30.0625 C13.83023438 30.07796875 12.84796875 30.0934375 11.8359375 30.109375 C9.48630895 30.04872011 9.48630895 30.04872011 8.4375 31.3125 C8.36478259 33.66563555 8.35379132 36.02083668 8.375 38.375 C8.38402344 39.66535156 8.39304687 40.95570312 8.40234375 42.28515625 C8.41394531 43.28417969 8.42554687 44.28320312 8.4375 45.3125 C10.22883978 45.36641993 12.02063899 45.40525571 13.8125 45.4375 C14.81023437 45.46070313 15.80796875 45.48390625 16.8359375 45.5078125 C19.60012173 45.58466848 19.60012173 45.58466848 21.4375 43.3125 C21.4375 45.2925 21.4375 47.2725 21.4375 49.3125 C19.9525 48.3225 19.9525 48.3225 18.4375 47.3125 C15.92165109 47.07099227 15.92165109 47.07099227 13.25 47.1875 C12.34894531 47.20554688 11.44789062 47.22359375 10.51953125 47.2421875 C9.83246094 47.26539063 9.14539063 47.28859375 8.4375 47.3125 C8.41065321 49.95840014 8.39073643 52.60403096 8.375 55.25 C8.36243164 56.38211914 8.36243164 56.38211914 8.34960938 57.53710938 C8.34097559 59.46244313 8.38525667 61.38785581 8.4375 63.3125 C10.16723114 65.04223114 12.46266963 64.48458117 14.8125 64.5 C15.78960937 64.51417969 16.76671875 64.52835938 17.7734375 64.54296875 C20.66537022 64.50791983 20.66537022 64.50791983 23.4375 62.3125 C23.4375 61.3225 23.4375 60.3325 23.4375 59.3125 C26.04821195 60.25525709 28.15052158 61.07375324 30.296875 62.859375 C34.0317292 65.39471398 38.09602252 64.95434634 42.4375 64.3125 C45.19359295 62.89205419 45.19359295 62.89205419 46.4375 60.3125 C47.27099951 57.35590127 47.27099951 57.35590127 46.4375 54.3125 C42.47305574 50.13940078 37.60592522 47.54328383 32.609375 44.7421875 C30.4375 43.3125 30.4375 43.3125 28.4375 40.3125 C27.76657348 34.16234026 27.76657348 34.16234026 30.3125 30.9375 C34.19255275 27.97040084 37.34495501 28.19342428 42.0625 28.25 C43.12210938 28.25676758 43.12210938 28.25676758 44.203125 28.26367188 C45.94795275 28.27546125 47.692737 28.29339676 49.4375 28.3125 C50.4275 32.2725 50.4275 32.2725 51.4375 36.3125 C50.7775 36.3125 50.1175 36.3125 49.4375 36.3125 C49.39625 35.714375 49.355 35.11625 49.3125 34.5 C48.56804397 32.03049033 48.56804397 32.03049033 45.75 30.5625 C42.27204519 29.25006422 40.11092703 28.83335734 36.4375 29.3125 C33.97563421 30.28353788 33.97563421 30.28353788 32.4375 32.3125 C31.60350125 35.22568914 31.60350125 35.22568914 32.4375 38.3125 C36.36199862 42.54682745 40.93081378 44.67896341 46.16796875 47.00390625 C48.73299496 48.48288005 49.93900656 49.77178515 51.4375 52.3125 C51.80237709 56.39912336 52.12615414 60.03935583 49.4375 63.3125 C43.00695104 67.25851868 35.81137828 67.0159085 28.4375 67.3125 C27.4475 64.3425 27.4475 64.3425 26.4375 61.3125 C26.1075 61.3125 25.7775 61.3125 25.4375 61.3125 C25.4375 62.9625 25.4375 64.6125 25.4375 66.3125 C17.5175 65.9825 9.5975 65.6525 1.4375 65.3125 C2.4275 64.3225 2.4275 64.3225 3.4375 63.3125 C3.75016856 60.04049361 3.75016856 60.04049361 3.703125 56.1875 C3.70503845 55.4847998 3.7069519 54.78209961 3.70892334 54.05810547 C3.71028475 52.57193646 3.70659132 51.08575555 3.69824219 49.59960938 C3.68754154 47.32134354 3.69813839 45.04386623 3.7109375 42.765625 C3.7096159 41.32291492 3.70705349 39.88020534 3.703125 38.4375 C3.69974121 36.46136719 3.69974121 36.46136719 3.69628906 34.4453125 C3.76915439 31.2131587 3.76915439 31.2131587 1.4375 29.3125 C-0.6105428 29.4075739 -0.6105428 29.4075739 -2.5625 30.3125 C-4.85759228 33.75513842 -5.30122956 36.26084413 -6.0703125 40.31640625 C-6.20065887 40.99549545 -6.33100525 41.67458466 -6.46530151 42.37425232 C-6.73900939 43.80675706 -7.00945539 45.2398884 -7.27685547 46.67358398 C-7.68687129 48.87162954 -8.10619181 51.06773555 -8.52734375 53.26367188 C-9.95395503 59.74599399 -9.95395503 59.74599399 -10.5625 66.3125 C-12.8984375 66.2109375 -12.8984375 66.2109375 -15.5625 65.3125 C-17.0390625 62.5390625 -17.0390625 62.5390625 -18.1875 58.9375 C-18.3935083 58.31206299 -18.5995166 57.68662598 -18.81176758 57.04223633 C-20.38098703 52.19410603 -21.70734826 47.28046898 -22.88671875 42.32421875 C-23.3648165 40.1174007 -23.3648165 40.1174007 -25.5625 39.3125 C-28.28111481 48.25695024 -30.95199895 57.08872123 -32.5625 66.3125 C-34.5425 66.3125 -36.5225 66.3125 -38.5625 66.3125 C-38.66046875 65.66667969 -38.7584375 65.02085938 -38.859375 64.35546875 C-39.92320999 57.6514741 -41.13684044 50.97424412 -42.4375 44.3125 C-42.58670898 43.4877417 -42.73591797 42.6629834 -42.88964844 41.81323242 C-43.81881246 37.19068892 -44.59803272 34.24802157 -48.5625 31.3125 C-52.60959071 29.55289534 -56.16004774 28.72550636 -60.5625 29.3125 C-64.75146939 33.35186334 -65.89477146 38.7351279 -66.0625 44.375 C-65.87963252 53.89486594 -61.91680555 61.12621133 -55.5625 68.0625 C-38.92312854 83.4219198 -16.22210818 88.09025697 5.77734375 87.625 C27.3176842 86.72732997 47.69315647 80.92357861 62.875 64.875 C68.48264019 58.13892298 71.21579619 51.93005046 70.80859375 43.0703125 C69.25985135 31.56071105 61.92347224 23.49482178 52.9375 16.625 C21.49921376 -3.92893366 -30.5074375 -3.42839914 -57.234375 24.7109375 Z " fill="#F0F7F4" transform="translate(102.5625,59.6875)"/>
<path d="M0 0 C1.05960938 0.00676758 1.05960938 0.00676758 2.140625 0.01367188 C3.88545275 0.02546125 5.630237 0.04339676 7.375 0.0625 C8.87321059 3.43347383 9.375 5.26692119 9.375 9.0625 C8.715 9.0625 8.055 9.0625 7.375 9.0625 C7.33375 8.44375 7.2925 7.825 7.25 7.1875 C6.53419994 4.76724235 6.53419994 4.76724235 3.6875 3.8125 C0.39805122 3.06771914 -2.26938194 2.76422284 -5.625 3.0625 C-6.615 3.7225 -7.605 4.3825 -8.625 5.0625 C-9.29221536 7.97690699 -9.29221536 7.97690699 -8.625 11.0625 C-5.77107931 14.20181276 -2.33511907 15.70563761 1.4375 17.5 C5.44432395 19.46459773 8.23754255 20.98189942 10.375 25.0625 C10.84574539 28.82846313 10.67923825 31.27505982 9.3125 34.8125 C6.67428073 37.8762385 4.27187845 39.25757101 0.375 40.0625 C-4.30355017 40.29796314 -8.94517535 40.23775002 -13.625 40.0625 C-14.285 38.4125 -14.945 36.7625 -15.625 35.0625 C-15.955 36.3825 -16.285 37.7025 -16.625 39.0625 C-25.535 39.0625 -34.445 39.0625 -43.625 39.0625 C-42.305 38.0725 -40.985 37.0825 -39.625 36.0625 C-39.21062179 33.36856447 -39.04368268 31.06423251 -39.05078125 28.3671875 C-39.03661667 27.61913849 -39.02245209 26.87108948 -39.00785828 26.10037231 C-38.96593449 23.71260169 -38.9507111 21.32558704 -38.9375 18.9375 C-38.90848136 16.54262287 -38.87399266 14.14793928 -38.83500671 11.75320435 C-38.81245101 10.2631199 -38.79667331 8.77291517 -38.78816223 7.28268433 C-38.73458079 2.17208079 -38.73458079 2.17208079 -37.625 1.0625 C-36.1362814 0.97580568 -34.643555 0.95546506 -33.15234375 0.96484375 C-32.25322266 0.96806641 -31.35410156 0.97128906 -30.42773438 0.97460938 C-29.48220703 0.98298828 -28.53667969 0.99136719 -27.5625 1 C-26.61310547 1.00451172 -25.66371094 1.00902344 -24.68554688 1.01367188 C-22.33196935 1.0254989 -19.97851523 1.04197975 -17.625 1.0625 C-17.625 3.0425 -17.625 5.0225 -17.625 7.0625 C-18.285 6.7325 -18.945 6.4025 -19.625 6.0625 C-19.625 5.4025 -19.625 4.7425 -19.625 4.0625 C-23.915 4.0625 -28.205 4.0625 -32.625 4.0625 C-32.955 8.6825 -33.285 13.3025 -33.625 18.0625 C-30.9953125 17.93875 -30.9953125 17.93875 -28.3125 17.8125 C-27.32636719 17.76609375 -26.34023437 17.7196875 -25.32421875 17.671875 C-22.08883936 17.24793873 -22.08883936 17.24793873 -19.625 13.0625 C-19.625 17.0225 -19.625 20.9825 -19.625 25.0625 C-20.945 23.7425 -22.265 22.4225 -23.625 21.0625 C-26.98648764 20.26796656 -30.15277293 20.24524879 -33.625 20.0625 C-33.295 25.3425 -32.965 30.6225 -32.625 36.0625 C-25.95094148 36.5497787 -25.95094148 36.5497787 -19.625 35.0625 C-19.295 34.0725 -18.965 33.0825 -18.625 32.0625 C-15.78900135 32.4563887 -14.00925849 32.74619459 -11.76953125 34.58984375 C-9.14913449 36.38927832 -7.70608297 36.40732905 -4.5625 36.3125 C-3.70527344 36.29703125 -2.84804687 36.2815625 -1.96484375 36.265625 C0.52871825 36.14070224 0.52871825 36.14070224 3.375 35.0625 C3.61260011 32.21129868 3.78017998 29.86094305 3.375 27.0625 C1.18517589 24.58069934 -1.23905481 23.28742984 -4.078125 21.6328125 C-4.95984375 21.11460938 -5.8415625 20.59640625 -6.75 20.0625 C-7.59820312 19.588125 -8.44640625 19.11375 -9.3203125 18.625 C-11.75351293 16.97537259 -13.10845868 15.56913996 -14.625 13.0625 C-15.125 9.625 -15.125 9.625 -14.625 6.0625 C-9.98372389 0.44411313 -6.96285592 -0.08350288 0 0 Z " fill="#EAF4F0" transform="translate(144.625,86.9375)"/>
<path d="M0 0 C0.83265381 0.00523682 1.66530762 0.01047363 2.52319336 0.01586914 C3.42231445 0.0190918 4.32143555 0.02231445 5.24780273 0.02563477 C6.66609375 0.03820312 6.66609375 0.03820312 8.11303711 0.05102539 C9.06243164 0.05553711 10.01182617 0.06004883 10.98999023 0.06469727 C13.34356776 0.07652429 15.69702188 0.09300514 18.05053711 0.11352539 C18.05053711 2.09352539 18.05053711 4.07352539 18.05053711 6.11352539 C17.39053711 5.78352539 16.73053711 5.45352539 16.05053711 5.11352539 C16.05053711 4.45352539 16.05053711 3.79352539 16.05053711 3.11352539 C11.76053711 3.11352539 7.47053711 3.11352539 3.05053711 3.11352539 C2.72053711 7.73352539 2.39053711 12.35352539 2.05053711 17.11352539 C4.68022461 16.98977539 4.68022461 16.98977539 7.36303711 16.86352539 C8.34916992 16.81711914 9.33530273 16.77071289 10.35131836 16.72290039 C13.58669775 16.29896412 13.58669775 16.29896412 16.05053711 12.11352539 C16.05053711 16.07352539 16.05053711 20.03352539 16.05053711 24.11352539 C14.73053711 22.79352539 13.41053711 21.47352539 12.05053711 20.11352539 C8.68904947 19.31899195 5.52276418 19.29627418 2.05053711 19.11352539 C2.38053711 24.39352539 2.71053711 29.67352539 3.05053711 35.11352539 C6.68053711 35.44352539 10.31053711 35.77352539 14.05053711 36.11352539 C13.72053711 36.77352539 13.39053711 37.43352539 13.05053711 38.11352539 C6.12053711 38.11352539 -0.80946289 38.11352539 -7.94946289 38.11352539 C-6.62946289 37.12352539 -5.30946289 36.13352539 -3.94946289 35.11352539 C-3.53508468 32.41958986 -3.36814557 30.1152579 -3.37524414 27.41821289 C-3.36107956 26.67016388 -3.34691498 25.92211487 -3.33232117 25.15139771 C-3.29039738 22.76362708 -3.27517399 20.37661243 -3.26196289 17.98852539 C-3.23294425 15.59364826 -3.19845555 13.19896467 -3.1594696 10.80422974 C-3.1369139 9.31414529 -3.1211362 7.82394056 -3.11262512 6.33370972 C-3.04808119 0.17750254 -3.04808119 0.17750254 0 0 Z " fill="#F6FBF9" transform="translate(108.949462890625,87.886474609375)"/>
<path d="M0 0 C12.21 0 24.42 0 37 0 C37 0.33 37 0.66 37 1 C36.40461426 1.01981934 35.80922852 1.03963867 35.19580078 1.06005859 C32.50507847 1.15516126 29.81514852 1.26489842 27.125 1.375 C26.18785156 1.4059375 25.25070313 1.436875 24.28515625 1.46875 C23.38925781 1.50742188 22.49335937 1.54609375 21.5703125 1.5859375 C20.74289551 1.6173584 19.91547852 1.6487793 19.06298828 1.68115234 C16.78013915 1.82599137 16.78013915 1.82599137 15 4 C12.875 3.625 12.875 3.625 11 3 C8.87491756 6.18762365 8.4979837 8.26512223 8 12 C7.67 12 7.34 12 7 12 C7 10.35 7 8.7 7 7 C6.34 7 5.68 7 5 7 C4.67 5.68 4.34 4.36 4 3 C2.68 2.67 1.36 2.34 0 2 C0 1.34 0 0.68 0 0 Z " fill="#CAE5D7" transform="translate(90,87)"/>
<path d="M0 0 C3.3 0 6.6 0 10 0 C10 0.33 10 0.66 10 1 C7.69 1.33 5.38 1.66 3 2 C2.67 6.29 2.34 10.58 2 15 C5.63 15 9.26 15 13 15 C12.67 15.66 12.34 16.32 12 17 C10.18757948 17.02687279 8.37504767 17.04633715 6.5625 17.0625 C5.55316406 17.07410156 4.54382813 17.08570312 3.50390625 17.09765625 C1 17 1 17 0 16 C-0.07319621 13.30345146 -0.09242537 10.63308542 -0.0625 7.9375 C-0.05798828 7.17888672 -0.05347656 6.42027344 -0.04882812 5.63867188 C-0.0370068 3.75908129 -0.01907078 1.87953101 0 0 Z " fill="#319361" transform="translate(111,107)"/>
<path d="M0 0 C0.33 0.99 0.66 1.98 1 3 C-0.72672034 3.36590746 -2.45653655 3.71722195 -4.1875 4.0625 C-5.15042969 4.25972656 -6.11335937 4.45695313 -7.10546875 4.66015625 C-10.03610862 5.00423947 -12.16307068 4.74164697 -15 4 C-15 3.01 -15 2.02 -15 1 C-13.25215171 0.63536268 -11.50159498 0.2836922 -9.75 -0.0625 C-8.28820312 -0.35833984 -8.28820312 -0.35833984 -6.796875 -0.66015625 C-4.10399548 -0.98736368 -2.47666446 -1.08496081 0 0 Z " fill="#E7F2EC" transform="translate(136,144)"/>
<path d="M0 0 C1.08667969 0.11988281 2.17335938 0.23976562 3.29296875 0.36328125 C4.12441406 0.47027344 4.95585938 0.57726562 5.8125 0.6875 C5.4825 1.3475 5.1525 2.0075 4.8125 2.6875 C5.8025 3.3475 6.7925 4.0075 7.8125 4.6875 C1.8106863 4.90574777 -3.37983704 4.1931904 -9.1875 2.6875 C-6.51245717 -0.96369882 -4.27917944 -0.5061395 0 0 Z " fill="#DDEDE6" transform="translate(87.1875,145.3125)"/>
<path d="M0 0 C2.125 0.375 2.125 0.375 4 1 C4.625 3.375 4.625 3.375 5 6 C4.34 6.66 3.68 7.32 3 8 C0.875 7.625 0.875 7.625 -1 7 C-1.625 4.625 -1.625 4.625 -2 2 C-1.34 1.34 -0.68 0.68 0 0 Z " fill="#86C0A5" transform="translate(166,65)"/>
<path d="M0 0 C0.99 0.33 1.98 0.66 3 1 C2.40049704 4.68266103 1.75241109 8.34543185 1 12 C0.34 11.34 -0.32 10.68 -1 10 C-1.99 10.495 -1.99 10.495 -3 11 C-2.01 7.37 -1.02 3.74 0 0 Z " fill="#D9EBE3" transform="translate(73,102)"/>
<path d="M0 0 C1.52519276 0.08937803 3.04681929 0.24537146 4.5625 0.4375 C5.80193359 0.59025391 5.80193359 0.59025391 7.06640625 0.74609375 C7.70449219 0.82988281 8.34257812 0.91367187 9 1 C8.67 2.32 8.34 3.64 8 5 C5.03 4.67 2.06 4.34 -1 4 C-1 1 -1 1 0 0 Z " fill="#E8F3ED" transform="translate(122,61)"/>
<path d="M0 0 C2.31 0 4.62 0 7 0 C8.49821059 3.37097383 9 5.20442119 9 9 C8.34 9 7.68 9 7 9 C6.896875 8.360625 6.79375 7.72125 6.6875 7.0625 C6.3471875 6.0415625 6.3471875 6.0415625 6 5 C5.01 4.67 4.02 4.34 3 4 C3.33 3.34 3.66 2.68 4 2 C2.68 1.34 1.36 0.68 0 0 Z " fill="#D9ECE3" transform="translate(145,87)"/>
<path d="M0 0 C1.09570312 0.10183594 2.19140625 0.20367187 3.3203125 0.30859375 C4.16335937 0.39238281 5.00640625 0.47617188 5.875 0.5625 C5.545 1.2225 5.215 1.8825 4.875 2.5625 C0.585 2.5625 -3.705 2.5625 -8.125 2.5625 C-8.125 1.9025 -8.125 1.2425 -8.125 0.5625 C-5.28943413 -0.85528293 -3.1341294 -0.30007622 0 0 Z " fill="#F5FBF8" transform="translate(139.125,123.4375)"/>
<path d="M0 0 C0.66 0.33 1.32 0.66 2 1 C2.625 3.5625 2.625 3.5625 3 6 C1.68 6.33 0.36 6.66 -1 7 C-0.67 4.69 -0.34 2.38 0 0 Z " fill="#449D6F" transform="translate(77,99)"/>
</svg>
