<?xml version="1.0" standalone="no"?>
<!DOCTYPE svg PUBLIC "-//W3C//DTD SVG 20010904//EN"
 "http://www.w3.org/TR/2001/REC-SVG-20010904/DTD/svg10.dtd">
<svg version="1.0" xmlns="http://www.w3.org/2000/svg"
 width="300.000000pt" height="300.000000pt" viewBox="0 0 300.000000 300.000000"
 preserveAspectRatio="xMidYMid meet">
<metadata>
Created by potrace 1.10, written by Peter Selinger 2001-2011
</metadata>
<g transform="translate(0.000000,300.000000) scale(0.100000,-0.100000)"
fill="#000000" stroke="none">
<path d="M1250 2225 c-505 -62 -910 -317 -980 -617 -36 -160 17 -331 148 -469
163 -174 422 -293 767 -355 152 -28 478 -26 645 4 331 58 591 178 749 347 223
239 216 511 -19 747 l-88 88 28 15 c55 28 67 89 25 130 -35 36 -76 33 -110 -7
-19 -22 -26 -40 -23 -59 5 -32 1 -31 -109 24 -87 44 -229 93 -342 117 -93 21
-104 22 -234 40 -103 13 -325 11 -457 -5z m538 -40 c325 -45 599 -169 769
-348 158 -166 193 -351 102 -536 -44 -89 -184 -228 -295 -293 -238 -139 -530
-210 -864 -210 -335 0 -626 71 -864 210 -109 64 -252 204 -294 290 -116 236
-28 474 244 662 196 136 458 215 804 244 74 6 288 -4 398 -19z m722 -85 c11
-11 20 -29 20 -40 0 -25 -34 -60 -58 -60 -24 0 -49 20 -57 47 -4 17 1 29 19
48 30 30 49 32 76 5z"/>
<path d="M1255 2134 c-261 -40 -480 -134 -634 -271 -110 -98 -113 -95 108 -91
138 2 191 0 191 -8 0 -7 -16 -15 -36 -18 -19 -4 -38 -14 -41 -23 -3 -8 13
-101 36 -207 58 -263 53 -245 59 -221 18 82 133 470 142 479 6 6 13 6 18 1 5
-6 43 -118 86 -250 43 -132 79 -241 80 -242 3 -4 76 402 76 424 0 24 -26 43
-60 43 -13 0 -20 5 -17 13 2 6 11 12 20 11 10 0 141 -1 292 -2 l275 -2 0 -55
c0 -42 -3 -55 -15 -55 -8 0 -15 8 -15 18 0 37 -36 55 -118 59 -42 2 -84 -1
-92 -6 -11 -8 -16 -37 -18 -121 l-4 -110 70 0 c92 0 121 11 128 50 4 16 12 30
18 30 7 0 11 -31 11 -95 0 -64 -4 -95 -11 -95 -6 0 -14 14 -18 30 -7 39 -36
50 -127 50 l-69 0 0 -99 c0 -54 3 -113 6 -130 l7 -31 89 0 c101 0 120 7 138
50 16 38 31 38 68 1 28 -29 113 -61 159 -61 42 0 103 31 118 61 39 75 8 122
-131 197 -123 66 -154 100 -154 170 0 98 58 144 189 150 47 2 104 0 126 -5 39
-9 39 -9 50 -71 14 -73 0 -84 -34 -27 -26 44 -72 65 -144 65 -66 0 -103 -25
-113 -75 -10 -53 14 -79 126 -135 156 -78 199 -130 187 -221 -12 -90 -85 -140
-214 -147 -126 -7 -148 0 -178 56 l-24 47 -1 -47 0 -48 -205 0 c-113 0 -208 0
-212 -1 -4 0 -9 4 -11 10 -2 6 8 11 21 11 55 0 57 10 57 280 0 215 -2 251 -16
265 -17 17 -49 13 -72 -10 -7 -7 -33 -111 -58 -231 -24 -120 -49 -243 -55
-271 l-10 -53 -42 0 -42 0 -63 203 c-35 111 -65 208 -68 216 -2 8 -6 12 -8 10
-6 -7 -116 -398 -116 -414 0 -19 -89 -22 -94 -2 -3 6 -28 116 -56 242 -28 127
-54 238 -57 248 -2 9 -22 26 -43 37 -43 22 -179 45 -191 33 -22 -22 -59 -116
-70 -176 -42 -227 135 -466 444 -599 322 -139 755 -156 1103 -42 178 58 355
168 443 275 91 112 134 248 113 361 -53 285 -368 505 -817 573 -123 18 -358
18 -480 -1z m400 -24 c131 -13 275 -44 360 -76 111 -43 150 -62 230 -113 123
-77 213 -183 262 -311 6 -14 11 -59 12 -100 3 -122 -40 -222 -139 -320 -189
-187 -482 -295 -835 -305 -465 -13 -892 170 -1025 440 -33 66 -35 75 -35 175
0 92 3 111 25 155 18 37 32 51 50 54 31 4 120 -17 143 -34 11 -8 33 -80 67
-226 76 -327 71 -314 143 -311 52 3 72 24 93 101 56 201 66 226 79 208 7 -10
31 -75 54 -146 23 -70 50 -136 60 -145 29 -26 99 -18 122 14 15 21 39 119 63
253 23 133 52 254 62 266 29 32 34 0 34 -219 l0 -219 -37 -35 c-32 -30 -36
-39 -27 -53 15 -24 71 -29 275 -25 90 1 178 2 194 1 171 -6 275 -3 301 11 76
37 124 108 124 182 0 88 -54 152 -178 213 -95 46 -125 70 -129 99 -11 81 133
86 200 6 60 -71 106 -15 76 93 -14 53 -53 68 -174 68 -97 0 -143 -12 -192 -51
l-26 -20 -11 22 c-22 44 -44 47 -327 45 -247 -2 -269 -3 -288 -21 -12 -11 -21
-22 -21 -26 0 -12 41 -50 50 -45 17 10 19 -27 5 -99 -23 -120 -37 -168 -46
-159 -5 5 -31 75 -58 157 -52 155 -70 186 -106 186 -33 0 -50 -32 -95 -191
-22 -79 -43 -145 -45 -148 -10 -10 -18 12 -41 106 -29 119 -30 140 -5 148 10
3 27 15 37 26 17 19 17 20 -4 42 -20 19 -34 22 -157 25 -131 4 -149 9 -122 36
112 110 386 229 582 253 28 3 70 9 95 12 80 12 213 12 325 1z m85 -410 c11 0
34 -15 52 -33 18 -19 41 -37 51 -40 10 -4 16 -10 13 -15 -9 -15 31 -88 68
-120 20 -18 65 -46 99 -63 97 -49 127 -76 127 -113 0 -40 -9 -52 -49 -69 -42
-18 -125 -6 -161 23 -14 11 -40 28 -58 37 l-32 17 -44 -43 c-42 -42 -43 -42
-107 -39 l-64 3 0 90 0 90 47 3 c40 3 50 -1 77 -27 58 -57 82 -35 87 77 5 118
-32 157 -88 90 -22 -28 -32 -32 -69 -31 -23 1 -46 6 -51 11 -5 5 -8 40 -6 78
3 68 4 69 33 75 17 4 36 5 43 3 8 -2 22 -4 32 -4z"/>
<path d="M2442 2088 c-26 -26 -6 -68 31 -68 16 0 17 2 7 15 -11 13 -15 13 -21
3 -6 -8 -9 -1 -9 20 0 29 3 33 23 30 16 -2 21 -9 20 -26 -2 -12 2 -22 7 -22
14 0 12 34 -2 48 -7 7 -19 12 -28 12 -9 0 -21 -5 -28 -12z"/>
</g>
</svg>
