<svg width="165" height="46" id="b6407d63-1282-49d0-8b9e-1650050aedb9" data-name="Layer 1" xmlns="http://www.w3.org/2000/svg" viewBox="0 0 1000 281.33"><g id="f889696e-7bd4-407b-82a8-db19b278368e" data-name="Layer 2"><g id="aaee7ffa-8c29-4737-bc47-43dc86a398f3" data-name="Layer 1-2"><path d="M241.14,270.9c-116.35,0-211.23-58.5-211.23-130.24,0-17.59,5.72-34.39,16.05-49.72C60.34,91.4,89.71,95,92.72,108l22.75,98.6h16.25L156.64,119l28.13,87.66H201l19.17-96.8c2.49-11.84,5.26-17.35,14.09-18.64,6,.9,9.56,4,9.56,14.45v82.57c0,13.54-6,14.81-15.71,14.81v3.61h84.52l1-19.57,9.26,19.41a211.983,211.983,0,0,0,28.79,2c24.74,0,44.6-10.84,44.6-33.78,0-17.15-9.56-24.55-23.83-32.86-15.71-9.21-39.3-14.45-39.3-30.53,0-11.91,10.65-19.68,22.75-19.68,19.32,0,31.43,11.2,33.06,20.77h4.52l-4.22-24.74a148.789,148.789,0,0,0-29.94-3.07c-22.75,0-40.62,8.85-40.62,30.52,0,11.55,5.89,18.06,13.83,24.2,16.8,12.83,46.77,18.78,46.77,38.28,0,12.47-10.29,22.76-26.18,22.76s-35.59-7.85-37-17.51h-6.78c-2.71,12.45-8.31,16.79-22.21,16.79H269.84c-9,0-9.93-1.09-9.93-15.17V147.22H283.2c12.11,0,16.44,5.06,16.44,15.18h3.79V125h-3.79c0,12.45-4.33,15.16-16.44,15.16H259.91v-31.6c0-13.18.55-15.17,9.93-15.17h15.89c12.83,0,18.79,4,20.95,15h4.52l-1.27-22H195.09V90.9c9.93,0,14.81,1.27,14.81,10.11a42.594,42.594,0,0,1-1.27,8.31L194.52,183.9h-.37L161.67,86.37h-5.75l-27.63,97.51h-.36l-17.7-78a34.991,34.991,0,0,1-1.08-7.59c0-4.69,3.44-7.4,16.43-7.4V86.37H49.21c33.49-44.75,107-75.95,191.93-75.95,116.34,0,211.23,58.51,211.23,130.24S357.48,270.9,241.14,270.9m0-270.9C108.32,0,0,63.19,0,140.66S108.32,281.33,241.14,281.33s241.14-63.19,241.14-140.67S374,0,241.14,0" style="fill:#1f9055"/><path d="M439.78,27a3.35,3.35,0,0,1-2.49,3.6l3,4.19h-2.47l-2.76-3.88h-2.55v3.88h-1.95V23.25h4.29a6.248,6.248,0,0,1,3.78.89A3.42,3.42,0,0,1,439.78,27Zm-2.58,1.64a2.08,2.08,0,0,0,.59-1.64,1.771,1.771,0,0,0-.61-1.56A4.069,4.069,0,0,0,435,25h-2.47v4.13H435a3.6,3.6,0,0,0,2.2-.5Z" style="fill:#1f9055"/><path d="M435.07,39.93a10.74,10.74,0,1,1,10.74-10.74h0A10.76,10.76,0,0,1,435.07,39.93Zm0-19.73a9,9,0,1,0,9,9A9,9,0,0,0,435.07,20.2Z" style="fill:#1f9055"/><path d="M601.45,38.12,584.21,91.29h-16.1L557.93,58.93,547.3,91.29H531.19L514,38.12h15.5l10.71,33.95L551.4,38.12h13.82l10.71,34.26L587.1,38.12Z" style="fill:#1f9055"/><path d="M617.52,88.79a27.18,27.18,0,0,1,0-48.16,34,34,0,0,1,30.31,0,26.631,26.631,0,0,1,14.39,24.08,26.661,26.661,0,0,1-14.39,24.08A34,34,0,0,1,617.52,88.79ZM640,78a13.684,13.684,0,0,0,5.17-5.36,17.522,17.522,0,0,0,0-15.87A13.684,13.684,0,0,0,640,51.41a15,15,0,0,0-14.58,0,13.591,13.591,0,0,0-5.16,5.36,16.16,16.16,0,0,0-1.9,7.94,16.157,16.157,0,0,0,1.9,7.93A13.591,13.591,0,0,0,625.38,78,14.942,14.942,0,0,0,640,78Z" style="fill:#1f9055"/><path d="M693,77.16h-8.2V91.29h-15V38.12h24.31a30.4,30.4,0,0,1,12.53,2.39,18,18,0,0,1,11.09,17.28A18.511,18.511,0,0,1,715,67.86a18.2,18.2,0,0,1-7.71,6.72l11.47,16.71h-16.1ZM700.12,52q-2.359-2.059-7-2.05h-8.36V65.54h8.36q4.62,0,7-2a7.13,7.13,0,0,0,2.36-5.74A7.249,7.249,0,0,0,700.12,52Z" style="fill:#1f9055"/><path d="M727.08,38.12h15V79.37H767.5V91.29H727.08Z" style="fill:#1f9055"/><path d="M774.56,38.12H799.7a35.191,35.191,0,0,1,15.5,3.27,24.566,24.566,0,0,1,10.48,9.26,26.169,26.169,0,0,1,3.72,14.06,26.124,26.124,0,0,1-3.72,14.05A24.574,24.574,0,0,1,815.2,88a35.191,35.191,0,0,1-15.5,3.27H774.56ZM799.1,79.29q6.821,0,11-3.87t4.14-10.71q0-6.84-4.14-10.71t-11-3.88h-9.5V79.29Z" style="fill:#1f9055"/><path d="M560.74,155.63v11.62H518.05V114.08h41.7V125.7H532.94v9h23.62v11.25H532.94v9.72Z" style="fill:#1f9055"/><path d="M570.23,114.08h25.15a35.288,35.288,0,0,1,15.49,3.26,24.6,24.6,0,0,1,10.48,9.27,28.352,28.352,0,0,1,0,28.11A24.515,24.515,0,0,1,610.87,164a35.162,35.162,0,0,1-15.49,3.27H570.23Zm24.54,41.17c4.56,0,8.21-1.29,11-3.87s4.14-6.16,4.14-10.72-1.39-8.12-4.14-10.71-6.42-3.87-11-3.87h-9.5v29.17Z" style="fill:#1f9055"/><path d="M638.71,161.86q-6.57-6.47-6.57-18.31V114.08h15v29q0,12.75,10.1,12.76t10-12.76v-29h14.82v29.47q0,11.85-6.57,18.31t-18.42,6.45Q645.28,168.31,638.71,161.86Z" style="fill:#1f9055"/><path d="M703.42,164.78A26.314,26.314,0,0,1,693,154.94a28.73,28.73,0,0,1,0-28.56,26.368,26.368,0,0,1,10.44-9.83,31.464,31.464,0,0,1,15-3.54,32.231,32.231,0,0,1,13.14,2.59,25.233,25.233,0,0,1,9.72,7.44l-9.57,8.66q-5.179-6.22-12.53-6.23a15.513,15.513,0,0,0-7.71,1.9,13.16,13.16,0,0,0-5.25,5.36,17.862,17.862,0,0,0,0,15.87,13.16,13.16,0,0,0,5.25,5.36,15.513,15.513,0,0,0,7.71,1.9q7.37,0,12.53-6.23l9.57,8.66a25.233,25.233,0,0,1-9.72,7.44,32.245,32.245,0,0,1-13.14,2.58A31.466,31.466,0,0,1,703.42,164.78Z" style="fill:#1f9055"/><path d="M786.71,156.92H764.23l-4.18,10.33H744.71l23.47-53.17H783l23.55,53.17H790.89Zm-4.4-11.09-6.84-17-6.83,17Z" style="fill:#1f9055"/><path d="M819.07,126H802.74V114.08h47.63V126H834.11v41.25h-15Z" style="fill:#1f9055"/><path d="M857.12,114.08h15v53.17h-15Z" style="fill:#1f9055"/><path d="M895.67,164.74a27.18,27.18,0,0,1,0-48.15,33.869,33.869,0,0,1,30.31,0,27.18,27.18,0,0,1,0,48.15A34,34,0,0,1,895.67,164.74ZM918.12,154a13.726,13.726,0,0,0,5.16-5.36,17.522,17.522,0,0,0,0-15.87,13.726,13.726,0,0,0-5.16-5.36,15,15,0,0,0-14.59,0,13.591,13.591,0,0,0-5.16,5.36,17.522,17.522,0,0,0,0,15.87,13.591,13.591,0,0,0,5.16,5.36A15,15,0,0,0,918.12,154Z" style="fill:#1f9055"/><path d="M1000,114.08v53.17H987.62l-23.47-28.33v28.33H949.41V114.08h12.38l23.47,28.33V114.08Z" style="fill:#1f9055"/><path d="M524.2,242.68a30.786,30.786,0,0,1-9.87-4.26l4.94-11.09a33.517,33.517,0,0,0,17.54,5.24q8.67,0,8.66-4.33a3.589,3.589,0,0,0-2.47-3.38,45.749,45.749,0,0,0-7.93-2.31,76.307,76.307,0,0,1-10-2.77,17.01,17.01,0,0,1-6.91-4.75q-2.891-3.27-2.89-8.81a15.3,15.3,0,0,1,2.66-8.78,17.835,17.835,0,0,1,7.94-6.19A32.624,32.624,0,0,1,538.79,189a46.047,46.047,0,0,1,10.33,1.18,31.724,31.724,0,0,1,9,3.46l-4.63,11.16a31,31,0,0,0-14.74-4.1c-3,0-5.16.45-6.53,1.33a4,4,0,0,0-2,3.46,3.43,3.43,0,0,0,2.43,3.19,44.017,44.017,0,0,0,7.82,2.2,74.545,74.545,0,0,1,10.07,2.77,17.41,17.41,0,0,1,6.91,4.71c1.95,2.16,2.92,5.08,2.92,8.78a14.932,14.932,0,0,1-2.65,8.65,18.208,18.208,0,0,1-8,6.2,32.329,32.329,0,0,1-12.91,2.31A49.322,49.322,0,0,1,524.2,242.68Z" style="fill:#1f9055"/><path d="M611,231.59v11.62H568.3V190H610v11.62H583.22v9h23.63v11.24H583.22v9.73Z" style="fill:#1f9055"/><path d="M643.76,229.08h-8.2v14.13h-15V190h24.31a30.467,30.467,0,0,1,12.54,2.39,19.34,19.34,0,0,1,9.243,25.742q-.389.824-.853,1.608a18.27,18.27,0,0,1-7.8,6.76l11.47,16.71h-16.1Zm7.14-25.14q-2.351-2.059-7-2.05h-8.35v15.57h8.35q4.64,0,7-2a7.158,7.158,0,0,0,2.36-5.74A7.25,7.25,0,0,0,650.9,203.94Z" style="fill:#1f9055"/><path d="M730.27,190l-22.78,53.17H692.68L670,190h16.26l14.43,34.64L715.39,190Z" style="fill:#1f9055"/><path d="M736.05,190h15v53.17h-15Z" style="fill:#1f9055"/><path d="M772.92,240.74a26.393,26.393,0,0,1-10.44-9.84,28.73,28.73,0,0,1,0-28.56,26.368,26.368,0,0,1,10.44-9.83,31.476,31.476,0,0,1,15-3.54,32.231,32.231,0,0,1,13.14,2.59,25.233,25.233,0,0,1,9.72,7.44l-9.57,8.66q-5.18-6.22-12.53-6.23a15.41,15.41,0,0,0-7.71,1.9,13.16,13.16,0,0,0-5.25,5.36,17.862,17.862,0,0,0,0,15.87,13.222,13.222,0,0,0,5.25,5.36,15.51,15.51,0,0,0,7.71,1.9q7.37,0,12.53-6.23l9.57,8.66a25.233,25.233,0,0,1-9.72,7.44,32.245,32.245,0,0,1-13.14,2.58A31.46,31.46,0,0,1,772.92,240.74Z" style="fill:#1f9055"/><path d="M861.3,231.59v11.62H818.61V190h41.7v11.62H833.5v9h23.62v11.24H833.5v9.73Z" style="fill:#1f9055"/><path d="M877,242.68a30.731,30.731,0,0,1-9.88-4.26L872,227.33a33.589,33.589,0,0,0,17.54,5.24q8.67,0,8.66-4.33a3.591,3.591,0,0,0-2.46-3.38,45.97,45.97,0,0,0-7.94-2.31,77.094,77.094,0,0,1-10-2.77,17.01,17.01,0,0,1-6.91-4.75Q868,211.76,868,206.22a15.3,15.3,0,0,1,2.66-8.78,17.835,17.835,0,0,1,7.94-6.19A32.637,32.637,0,0,1,891.53,189a46.047,46.047,0,0,1,10.33,1.18,31.724,31.724,0,0,1,9,3.46l-4.63,11.16a31,31,0,0,0-14.73-4.1c-3,0-5.17.45-6.54,1.33a4,4,0,0,0-2,3.46,3.43,3.43,0,0,0,2.43,3.19,43.953,43.953,0,0,0,7.83,2.2,74.222,74.222,0,0,1,10.06,2.77,17.4,17.4,0,0,1,6.91,4.71c1.95,2.16,2.93,5.08,2.93,8.78a14.937,14.937,0,0,1-2.66,8.65,18.085,18.085,0,0,1-8,6.2,32.329,32.329,0,0,1-12.91,2.31A49.216,49.216,0,0,1,877,242.68Z" style="fill:#1f9055"/></g></g></svg>